<?xml version="1.0" encoding="utf-8"?>
<!-- Generator: Adobe Illustrator 26.0.1, SVG Export Plug-In . SVG Version: 6.00 Build 0)  -->
<svg version="1.1" id="Layer_1" xmlns="http://www.w3.org/2000/svg" xmlns:xlink="http://www.w3.org/1999/xlink" x="0px" y="0px"
	 viewBox="0 0 125 125" style="enable-background:new 0 0 125 125;" xml:space="preserve">
<style type="text/css">
	.st0{fill:#D3A933;}
</style>
<g>
	<path class="st0" d="M13.14,77.36c5.41,1.26,10.23-0.01,14.3-3.81c1.92-1.8,4.08-2.5,6.69-2.09c0.03,0.36,0.07,0.63,0.07,0.91
		c-0.04,4.09,1.38,7.58,4.21,10.54c1.87,1.97,3.67,4.01,5.45,6.06c1.82,2.1,3.06,4.52,3.29,7.32c0.19,2.33,0.18,4.68,0.23,7.02
		c0.04,1.56,0.54,2.25,1.68,2.24c1.09-0.01,1.65-0.77,1.66-2.3c0.01-1.45-0.01-2.91,0.01-4.36c0.04-4.96-1.67-9.25-5-12.91
		c-1.83-2.01-3.66-4.02-5.47-6.05c-2.14-2.41-2.9-5.25-2.65-8.48c1.62,0,3.12,0,4.85,0c-0.4,1.04-0.69,1.92-1.08,2.74
		c-0.49,1.05-0.46,1.99,0.63,2.51c1.07,0.51,2.03,0.03,2.36-1.06c0.61-2.04,1.39-4.12,1.47-6.21c0.21-5.43-0.01-10.88,0.13-16.31
		c0.03-1.32,0.6-2.71,1.22-3.91c0.55-1.08,1.71-1.4,2.94-1.11c1.27,0.3,2.22,1.15,2.27,2.38c0.09,2.36,0.57,4.77-0.47,7.07
		c-0.43,0.96-0.2,1.8,0.74,2.26c0.94,0.45,1.84,0.15,2.22-0.81c0.44-1.11,0.83-2.31,0.91-3.49c0.15-2.1,0.02-4.22,0.07-6.33
		c0.05-1.89,1.45-3.29,3.17-3.26c1.79,0.04,3.06,1.37,3.09,3.3C62.16,51.16,62,53.1,62.18,55c0.13,1.41,0.55,2.83,1.06,4.16
		c0.35,0.92,1.4,1.16,2.12,0.6c0.5-0.38,0.82-1.32,0.79-1.98c-0.11-2.22-0.54-4.42-0.62-6.64c-0.08-2.11,1.37-3.54,3.2-3.49
		c1.81,0.05,3.02,1.4,3.08,3.5c0.04,1.55-0.01,3.09,0.04,4.64c0.06,1.86,0.78,3.45,2.05,4.8c0.76,0.81,1.63,0.98,2.47,0.2
		c0.79-0.72,0.76-1.63,0.05-2.37c-1.37-1.41-1.35-3.13-1.2-4.87c0.1-1.1,0.83-1.94,1.88-1.95c0.82,0,1.92,0.38,2.38,0.98
		c0.57,0.75,0.72,1.88,0.88,2.88c0.3,1.94,0.38,3.92,0.74,5.85c0.76,4.08,1.37,8.18,0.36,12.27c-1.14,4.63-2.43,9.23-3.78,13.81
		c-1.59,5.38-1.86,10.88-1.61,16.42c0.03,0.59,0.75,1.41,1.33,1.64c0.42,0.16,1.29-0.37,1.69-0.82c0.31-0.35,0.25-1.06,0.27-1.62
		c0.09-2.76-0.17-5.58,0.31-8.27c0.75-4.18,2-8.27,3.04-12.39c0.91-3.61,1.84-7.22,2.8-11.01c2.16,0,4.5,0.05,6.83-0.01
		c2.38-0.06,4.32,0.72,6.08,2.36c6.16,5.76,15.7,5.45,21.53-0.59c5.74-5.95,5.64-15.6-0.23-21.45c-5.95-5.94-15.37-6-21.54-0.14
		c-1.46,1.39-3.16,2.13-5.19,2.11c-2.67-0.02-5.35-0.05-8.02,0.02c-0.99,0.02-1.45-0.24-1.79-1.24c-1.01-2.99-3.46-4.57-6.33-4.22
		c-0.68,0.08-1.33,0.31-1.98,0.46c-1.77-3.84-5.68-5.78-10.22-3.12c-4.3-4.1-6.77-4.05-11.46,0.22c-5.77-3.37-10.95,1.49-10.74,7.87
		c-3.14,0-6.18-0.05-9.22,0.01c-2.33,0.05-4.24-0.72-5.95-2.34c-4.99-4.7-12.33-5.47-18.22-2.03c-1.96,1.15-1.99,2.52-0.04,3.65
		c2.71,1.58,5.42,3.18,8.17,4.69c0.87,0.48,1.05,1.01,0.81,1.92c-0.54,2.1-1.59,3.87-3.11,5.41c-0.71,0.72-1.33,0.77-2.21,0.24
		c-2.73-1.65-5.49-3.23-8.26-4.8c-1.66-0.95-2.83-0.26-2.9,1.66C1.27,69.17,6.19,75.74,13.14,77.36z M91.11,57.03
		c3.9,0.2,7.13-0.95,10.07-3.66c4.71-4.33,12.11-3.7,16.56,1.08c4.25,4.58,4.1,11.91-0.33,16.43c-4.47,4.55-11.85,4.86-16.5,0.5
		c-2.6-2.44-5.52-3.55-9.03-3.42c-2.14,0.08-4.28,0.01-6.41,0.01c-0.58-3.69-1.13-7.22-1.72-10.96
		C86.36,57.01,88.74,56.91,91.11,57.03z M5.14,64.66c2.48,1.43,4.78,2.67,6.98,4.06c1.31,0.82,2.4,0.76,3.59-0.15
		c3.57-2.69,5.65-6.17,5.83-10.71c0.05-1.12-0.37-1.84-1.35-2.39c-2.37-1.32-4.69-2.7-7.28-4.2c2.31-0.96,4.42-0.91,6.53-0.48
		c2.21,0.45,4.14,1.5,5.74,3.09c2.11,2.09,4.64,3.1,7.59,3.1c2.86,0,5.72,0.01,8.58,0.01c0.62,0,1.23-0.09,1.22,0.88
		c-0.03,3.28-0.01,6.55-0.01,9.99c-0.51,0.04-0.96,0.09-1.4,0.09c-2.53,0.01-5.06,0.05-7.59-0.01c-3.36-0.09-6.17,1.01-8.64,3.33
		c-6.42,6.02-17,3.1-19.52-5.31C5.3,65.63,5.26,65.27,5.14,64.66z"/>
	<path class="st0" d="M118.42,82.06c-2.91-0.02-5.81,0.05-8.72-0.03c-1.95-0.06-3.57,0.62-4.68,2.1c-1,1.32-1.81,2.83-2.45,4.36
		c-0.68,1.63-0.4,3.27,0.54,4.83c1.49,2.44,2.82,4.97,4.32,7.4c0.71,1.14,0.55,1.95-0.4,2.82c-1.17,1.08-2.3,2.21-3.37,3.39
		c-0.82,0.91-1.57,0.9-2.58,0.3c-2.53-1.52-5.12-2.94-7.66-4.44c-1.33-0.79-2.76-1.19-4.16-0.6c-1.78,0.76-3.54,1.66-5.1,2.79
		c-1.41,1.03-1.96,2.64-1.9,4.47c0.08,2.9-0.01,5.81,0.04,8.72c0.02,1.14-0.44,1.72-1.53,1.97c-1.59,0.37-3.2,0.75-4.75,1.27
		c-1.24,0.41-1.91-0.01-2.5-1.07c-1.46-2.62-2.89-5.26-4.54-7.76c-0.65-0.98-1.74-1.86-2.83-2.33c-2.17-0.94-4.55-0.95-6.72-0.05
		c-1.17,0.49-2.33,1.44-3.03,2.5c-1.66,2.49-3.07,5.15-4.54,7.76c-0.54,0.96-1.18,1.33-2.29,0.98c-1.61-0.5-3.24-0.93-4.88-1.3
		c-1.18-0.27-1.57-0.93-1.55-2.11c0.06-2.86-0.06-5.72,0.04-8.58c0.11-3.1-1.75-4.83-4.11-6.18c-2.33-1.33-4.72-1.96-7.28-0.36
		c-2.46,1.54-5.05,2.88-7.53,4.38c-0.93,0.56-1.62,0.49-2.35-0.28c-1.2-1.26-2.41-2.5-3.67-3.69c-0.84-0.79-0.84-1.53-0.27-2.48
		c1.49-2.49,2.87-5.06,4.39-7.53c0.94-1.52,1.06-3.07,0.62-4.72c-0.55-2.04-1.52-3.9-3.24-5.14c-1-0.72-2.33-1.29-3.55-1.37
		c-3.08-0.19-6.18-0.07-9.28-0.04c-1.39,0.01-2.22,0.66-2.14,1.68c0.11,1.3,1,1.66,2.18,1.65c2.86-0.01,5.72,0.01,8.58,0.02
		c2.99,0.02,5.24,3.9,3.75,6.47c-1.47,2.56-2.97,5.1-4.4,7.68c-1.2,2.16-0.93,4.13,0.77,5.91c1.33,1.39,2.7,2.73,4.07,4.08
		c1.86,1.83,3.58,2.09,5.84,0.82c2.33-1.31,4.75-2.5,6.91-4.04c2.16-1.54,3.9-0.92,5.75,0.36c1.07,0.74,1.66,1.61,1.6,3.03
		c-0.12,2.9-0.04,5.81-0.03,8.72c0.01,2.47,1.2,4.08,3.55,4.78c1.75,0.52,3.52,0.95,5.29,1.42c2.91,0.77,4.57,0.08,6.11-2.54
		c1.42-2.43,2.88-4.83,4.2-7.31c0.64-1.2,1.53-1.7,2.8-1.73c0.75-0.02,1.5,0,2.25,0.03c1.05,0.05,1.81,0.49,2.36,1.48
		c1.5,2.71,3.06,5.37,4.64,8.03c1.13,1.9,2.92,2.73,5.01,2.25c2.14-0.49,4.28-1.05,6.37-1.71c2.13-0.67,3.23-2.32,3.25-4.57
		c0.01-1.5,0-3,0-4.5c0-1.17,0.14-2.36-0.03-3.51c-0.33-2.3,0.83-3.55,2.71-4.53c1.45-0.76,2.7-0.9,4.18,0.05
		c2.44,1.57,5,2.96,7.53,4.38c2.04,1.14,3.84,0.89,5.52-0.72c1.42-1.37,2.81-2.76,4.17-4.18c1.87-1.95,2.08-3.91,0.73-6.26
		c-1.45-2.52-2.9-5.03-4.35-7.55c-1.34-2.32,0.91-6.31,3.58-6.33c2.91-0.02,5.81-0.01,8.72-0.03c1.5-0.01,2.31-0.61,2.33-1.66
		C120.74,82.67,119.94,82.07,118.42,82.06z"/>
	<path class="st0" d="M7.12,42.92c3,0.01,6-0.02,9,0.02c1.5,0.02,2.88-0.4,3.78-1.54c1.14-1.45,2.18-3.03,2.94-4.7
		c0.8-1.74,0.49-3.54-0.56-5.23c-1.45-2.35-2.73-4.81-4.2-7.15c-0.75-1.19-0.6-2.02,0.4-2.93c1.17-1.07,2.29-2.22,3.37-3.39
		c0.77-0.83,1.49-0.91,2.47-0.32c2.61,1.57,5.24,3.1,7.92,4.55c0.79,0.43,1.78,0.8,2.64,0.74c3.16-0.22,5.76-1.63,7.51-4.3
		c0.48-0.73,0.72-1.74,0.75-2.63c0.09-3.09,0.07-6.19,0.02-9.28c-0.02-1.09,0.43-1.65,1.43-1.91c1.68-0.43,3.36-0.85,5.02-1.34
		c1.02-0.3,1.68-0.05,2.21,0.9c1.47,2.62,3.03,5.18,4.47,7.8c0.78,1.41,1.91,2.47,3.43,2.65c1.96,0.23,3.99,0.24,5.95,0.03
		c1.59-0.17,2.74-1.27,3.55-2.72c1.43-2.58,2.97-5.1,4.4-7.68c0.55-0.99,1.2-1.3,2.29-0.96c1.61,0.49,3.25,0.9,4.88,1.3
		c1.07,0.26,1.55,0.81,1.53,1.97c-0.06,2.95,0.02,5.91-0.04,8.86c-0.04,1.72,0.48,3.23,1.8,4.24c1.43,1.09,3.02,2.03,4.66,2.76
		c1.61,0.72,3.27,0.42,4.83-0.53c2.32-1.42,4.7-2.73,7.06-4.08c1.92-1.1,1.92-1.1,3.43,0.41c0.89,0.89,1.79,1.79,2.68,2.68
		c1.54,1.53,1.55,1.63,0.48,3.46c-1.41,2.43-2.79,4.88-4.23,7.29c-0.74,1.24-0.91,2.54-0.62,3.92c0.46,2.17,1.52,4.01,3.12,5.55
		c1.1,1.06,2.38,1.6,3.92,1.58c3.05-0.03,6.09-0.01,9.14-0.03c1.4-0.01,2.17-0.61,2.17-1.65c0.01-1.03-0.76-1.66-2.15-1.67
		c-2.62-0.03-5.26-0.19-7.87,0.02c-2.42,0.2-3.59-1.03-4.54-2.93c-0.66-1.33-0.73-2.49,0.1-3.81c1.47-2.34,2.8-4.77,4.17-7.16
		c1.38-2.41,1.14-4.41-0.78-6.38c-1.31-1.34-2.64-2.67-3.98-3.98c-1.8-1.76-3.55-2.01-5.73-0.78c-2.33,1.31-4.75,2.5-6.92,4.03
		c-2.13,1.51-3.87,1-5.75-0.29c-1.13-0.78-1.73-1.67-1.67-3.13c0.11-2.9,0.04-5.81,0.03-8.72c-0.01-2.44-1.25-4.07-3.6-4.73
		c-1.85-0.52-3.7-1.01-5.56-1.49c-2.48-0.64-4.31,0.12-5.59,2.32c-1.51,2.59-3.03,5.17-4.48,7.8c-0.54,0.97-1.27,1.47-2.34,1.52
		c-0.79,0.03-1.59,0.04-2.39,0.03c-1.21-0.03-2.08-0.53-2.7-1.66c-1.46-2.67-3.01-5.29-4.56-7.91c-1.1-1.87-2.8-2.66-4.89-2.21
		c-2.24,0.48-4.45,1.11-6.63,1.82c-1.99,0.65-3.07,2.29-3.09,4.39c-0.02,1.55,0,3.09-0.01,4.64c0,1.12-0.14,2.27,0.03,3.37
		c0.42,2.68-1.13,3.92-3.25,4.87c-1.15,0.52-2.14,0.56-3.29-0.15c-2.54-1.58-5.17-3.04-7.78-4.51c-2.12-1.19-3.88-0.96-5.63,0.73
		c-1.32,1.27-2.6,2.57-3.89,3.87c-2.13,2.16-2.39,4.08-0.88,6.71c1.42,2.48,2.89,4.93,4.3,7.42c1.31,2.31-1.01,6.28-3.67,6.3
		c-2.86,0.02-5.72,0-8.58,0.02c-1.62,0.01-2.45,0.61-2.41,1.7C4.81,42.36,5.59,42.92,7.12,42.92z"/>
	<path class="st0" d="M63.55,25.01c-11.85,0.25-21.24,4.34-28.71,12.6c-1.59,1.76-2.89,3.79-4.24,5.76
		c-0.75,1.1-0.55,2.25,0.37,2.68c1.07,0.5,1.9,0.13,2.46-0.9c0.2-0.37,0.44-0.72,0.67-1.07c11.07-17.34,35.2-20.88,50.78-7.46
		c2.87,2.47,5.29,5.3,7.2,8.56c0.6,1.03,1.45,1.42,2.46,0.85c1.06-0.59,1.04-1.57,0.44-2.55c-0.15-0.24-0.28-0.49-0.43-0.72
		C87.07,31.28,76.42,25.53,63.55,25.01z"/>
	<path class="st0" d="M100.44,66.27c0.07,0.8,0.4,1.18,0.99,1.67c0.9,0.74,1.47,1.98,2.44,2.54c1,0.58,2.33,0.58,3.51,0.88
		c0.31,0.08,0.57,0.31,0.86,0.47c0.2,0.11,0.41,0.2,0.63,0.3c0.28-0.13,0.52-0.29,0.78-0.37c1.05-0.3,2.13-0.52,3.16-0.87
		c0.51-0.17,1-0.5,1.4-0.87c0.71-0.64,1.25-1.5,2.03-2.02c0.76-0.5,1.03-1.01,1.08-1.91c0.05-0.89,0.34-1.81,0.74-2.62
		c0.34-0.7,0.32-1.2,0.01-1.92c-0.91-2.14-1-4.73-3.48-5.96c-0.14-0.07-0.21-0.31-0.28-0.48c-0.32-0.8-0.89-1.02-1.75-1.06
		c-0.89-0.05-1.82-0.3-2.63-0.69c-0.75-0.36-1.29-0.42-2.07-0.04c-0.84,0.41-1.82,0.67-2.76,0.73c-0.79,0.06-1.37,0.21-1.63,0.98
		c-0.45,1.35-1.99,1.6-2.65,2.54c-0.68,0.96-0.65,2.42-0.93,3.67c-0.03,0.13-0.19,0.24-0.2,0.36c-0.02,0.59-0.1,1.2,0.01,1.77
		C99.89,64.35,100.35,65.29,100.44,66.27z M108.82,56.81c2.41-0.09,5.8,3.26,5.76,5.71c-0.04,2.51-3.13,5.58-5.69,5.65
		c-2.45,0.06-5.86-3.32-5.76-5.71C103.25,59.91,106.27,56.91,108.82,56.81z"/>
</g>
</svg>
