<?xml version="1.0" encoding="utf-8"?>
<!-- Generator: Adobe Illustrator 26.0.1, SVG Export Plug-In . SVG Version: 6.00 Build 0)  -->
<svg version="1.1" id="Layer_1" xmlns="http://www.w3.org/2000/svg" xmlns:xlink="http://www.w3.org/1999/xlink" x="0px" y="0px"
	 viewBox="0 0 125 125" style="enable-background:new 0 0 125 125;" xml:space="preserve">
<style type="text/css">
	.st0{fill:#D3A933;}
</style>
<g>
	<path class="st0" d="M78.24,124.5c-24.21,0-48.43,0-72.64,0c-2.63-0.76-4.3-2.48-5.08-5.08c0-35.35,0-70.69,0-106.04
		c0.06-0.1,0.16-0.2,0.17-0.31C1.53,6.16,7.76,0.46,15.9,0.5c25.66,0.13,51.33,0.05,76.99,0.05c8.84,0,15.11,6.24,15.12,15.06
		c0.01,7.83,0,15.65,0,23.48c0,4.38-2.53,6.92-6.9,6.93c-5.49,0.01-10.98,0-16.46,0c-0.44,0-0.87,0-1.37,0c0,8.89,0,17.65,0,26.65
		c0.42-0.45,0.7-0.73,0.96-1.02c2.37-2.64,4.74-5.28,7.12-7.92c4.99-5.55,9.96-11.12,14.97-16.65c4.32-4.77,11.25-4.84,15.5-0.21
		c3.66,3.99,3.56,9.88-0.28,14.16c-12.53,13.96-25.07,27.91-37.58,41.9c-0.43,0.48-0.73,1.26-0.74,1.9
		c-0.06,4.36-0.02,8.71-0.04,13.07c-0.02,3.34-1.48,5.31-4.66,6.4C78.42,124.33,78.33,124.43,78.24,124.5z M70.79,86.59
		c2.52-2.8,4.89-5.49,7.33-8.11c0.68-0.74,0.94-1.48,0.94-2.48c-0.03-20.01-0.03-40.03-0.01-60.04c0-1.28,0.11-2.58,0.33-3.85
		c0.49-2.8,1.9-5.17,3.97-7.45c-0.52,0-0.78,0-1.04,0c-22.4,0-44.79-0.02-67.19,0.01C9.17,4.69,4.67,9.23,4.67,15.25
		C4.65,49.42,4.66,83.6,4.66,117.77c0,1.84,0.75,2.6,2.56,2.6c23.08,0,46.17,0,69.25,0c1.85,0,2.56-0.71,2.57-2.56
		c0.02-3.35,0.01-6.7,0-10.05c0-0.26-0.07-0.51-0.11-0.82c-0.25,0.08-0.41,0.12-0.55,0.19c-5.17,2.55-10.33,5.1-15.5,7.65
		c-0.21,0.11-0.47,0.21-0.6,0.39c-0.65,0.97-1.59,1.09-2.65,1.09c-11.14-0.02-22.28-0.01-33.41-0.01c-0.36,0-0.73,0.02-1.09-0.03
		c-1.14-0.16-1.92-1.1-1.85-2.18c0.07-1.05,0.86-1.82,1.98-1.91c0.4-0.03,0.81-0.01,1.21-0.01c10.37,0,20.74-0.01,31.11,0.02
		c0.8,0,1.21-0.2,1.5-0.99c1.75-4.89,3.56-9.76,5.34-14.64c0.09-0.25,0.14-0.52,0.24-0.92c-0.62,0-1.13,0-1.65,0
		c-16.26,0-32.53,0-48.79,0c-0.48,0-0.97,0.01-1.45-0.04c-0.99-0.11-1.65-0.66-1.84-1.64c-0.19-1.04,0.22-1.91,1.21-2.24
		c0.72-0.25,0.79-0.63,0.78-1.25c-0.02-1.45-0.04-2.91,0-4.36c0.03-0.84-0.21-1.44-0.81-2.11c-0.62-0.7-0.98-1.73-1.18-2.67
		c-0.2-0.93,0.01-1.93-0.08-2.89c-0.05-0.51-0.23-1.1-0.55-1.49c-2.55-3.11-1.78-7.49,1.75-9.42c0.67-0.37,0.88-0.75,0.87-1.49
		c-0.04-3.79-0.04-7.59-0.01-11.38c0.04-5.1,3.52-8.55,8.63-8.58c3.19-0.02,6.38-0.02,9.56,0c5.2,0.02,8.63,3.45,8.65,8.65
		c0.02,3.71,0.02,7.42-0.01,11.14c-0.01,0.79,0.16,1.26,0.95,1.68c3.23,1.71,4.24,5.91,2.07,8.83c-0.71,0.96-0.99,1.86-0.91,2.97
		c0.03,0.44,0,0.89,0.01,1.33c0.03,1.49-0.44,2.76-1.61,3.75c-0.22,0.18-0.46,0.5-0.47,0.77c-0.04,2.05-0.02,4.1-0.02,6.22
		c2.12,0,4.11,0,6.24,0c0-1.47-0.03-2.87,0.01-4.27c0.07-2.63,1.81-4.9,4.33-5.67c0.57-0.17,1.16-0.26,1.77-0.4
		c0-10.27,0-20.5,0-30.87c-1.91,0-3.75,0.01-5.6,0c-3.52-0.02-5.41-2.65-4.26-5.95c1.58-4.52,3.17-9.05,4.78-13.56
		c0.79-2.24,2.19-3.22,4.56-3.22c4.48-0.01,8.96-0.01,13.44,0c2.57,0,3.87,0.92,4.72,3.32c1.56,4.4,3.11,8.81,4.66,13.22
		c1.27,3.62-0.55,6.19-4.39,6.19c-1.76,0-3.53,0-5.33,0c0,10.4,0,20.66,0,30.93C68.02,81.43,69.99,83.22,70.79,86.59z M83.24,41.75
		c0.24,0.06,0.35,0.12,0.46,0.12c5.97,0.01,11.94,0.03,17.91,0c1.45-0.01,2.25-0.84,2.25-2.29c0.02-8.31,0.14-16.62-0.05-24.92
		c-0.15-6.9-6.78-11.48-13.35-9.5c-4.44,1.33-7.25,5.32-7.27,10.41c-0.02,8.35-0.01,16.69,0,25.04
		C83.19,40.96,83.22,41.32,83.24,41.75z M109.11,68.69c-3.12-2.8-6.14-5.51-9.23-8.28C90.19,71.2,80.57,81.9,70.9,92.68
		c3.07,2.76,6.1,5.48,9.22,8.28C89.77,90.21,99.38,79.51,109.11,68.69z M35.65,60.2c0-1.9,0.01-3.79,0-5.69
		c-0.02-2.71-1.67-4.34-4.4-4.36c-3.23-0.02-6.45-0.01-9.68,0c-2.8,0.01-4.47,1.62-4.5,4.4c-0.04,3.87-0.03,7.74,0.02,11.61
		c0.01,0.4,0.4,0.85,0.72,1.18c0.87,0.92,1.77,1.82,2.7,2.68c0.33,0.31,0.77,0.7,1.17,0.71c3.15,0.06,6.29,0.05,9.44,0
		c0.37-0.01,0.79-0.35,1.09-0.64c0.95-0.9,1.87-1.82,2.77-2.77c0.29-0.3,0.63-0.72,0.65-1.09C35.69,64.23,35.65,62.21,35.65,60.2z
		 M70.52,45.98c-0.03-0.28-0.01-0.45-0.06-0.59c-1.51-4.38-3.04-8.75-4.52-13.13c-0.23-0.67-0.63-0.71-1.18-0.71
		c-4.19,0.01-8.39,0.01-12.58-0.03c-0.72-0.01-1.05,0.23-1.29,0.9c-1.36,3.87-2.77,7.73-4.16,11.59c-0.23,0.63-0.44,1.27-0.67,1.96
		C54.26,45.98,62.32,45.98,70.52,45.98z M102.64,57.33c3.09,2.77,6.13,5.5,9.26,8.31c2.54-2.87,5.11-5.55,7.39-8.44
		c1.95-2.47,1.34-6.15-1.03-8.17c-2.46-2.1-6.08-2.05-8.33,0.29C107.44,51.88,105.1,54.6,102.64,57.33z M60.39,81.08
		c0-10.34,0-20.59,0-30.87c-1.36,0-2.64,0-3.96,0c0,10.31,0,20.56,0,30.87C57.77,81.08,59.01,81.08,60.39,81.08z M37.7,79.08
		c-2.62-0.23-4.44-1.43-5.6-3.66c-0.14-0.26-0.61-0.5-0.92-0.5c-3.18-0.04-6.37-0.04-9.55,0c-0.33,0-0.83,0.2-0.96,0.46
		c-1.15,2.29-3.02,3.47-5.58,3.71c0,0.67,0,1.3,0,1.95c7.57,0,15.08,0,22.61,0C37.7,80.35,37.7,79.76,37.7,79.08z M66.64,91.35
		c0-1.47,0.03-2.75-0.01-4.04c-0.04-1.21-0.78-2.01-1.96-2.02c-4.19-0.04-8.38-0.04-12.57,0c-1.11,0.01-1.84,0.72-1.91,1.81
		c-0.1,1.39-0.02,2.8-0.02,4.25C55.68,91.35,61.09,91.35,66.64,91.35z M68.86,96.42c-1.61,4.39-3.16,8.65-4.82,13.18
		c4.37-2.16,8.42-4.16,12.58-6.22C73.98,101.01,71.47,98.76,68.86,96.42z M29,91.36c-0.42-2.09-0.81-4.07-1.21-6.04
		c-1.02,0-1.9,0-2.83,0c-0.4,2.01-0.8,3.97-1.21,6.04C25.52,91.36,27.19,91.36,29,91.36z M17.07,85.32c0,1.88-0.03,3.67,0.03,5.47
		c0.01,0.22,0.5,0.63,0.74,0.61c0.6-0.05,1.62-0.17,1.71-0.48c0.51-1.8,0.8-3.67,1.18-5.59C19.5,85.32,18.39,85.32,17.07,85.32z
		 M32.01,85.31c0.33,1.62,0.74,3.1,0.9,4.61c0.14,1.31,0.71,1.75,1.93,1.52c0.23-0.04,0.46-0.05,0.74-0.08c0-2.04,0-4.02,0-6.05
		C34.38,85.31,33.27,85.31,32.01,85.31z M37.7,74.89c1.17,0.02,2.07-0.86,2.07-2.03c0-1.15-0.93-2.09-2.06-2.07
		c-1.07,0.01-2,0.92-2.04,2C35.63,73.9,36.56,74.87,37.7,74.89z M17.04,72.82c-0.01-1.15-0.96-2.07-2.09-2.04
		c-1.07,0.04-1.99,0.96-2.01,2.03c-0.02,1.13,0.92,2.07,2.06,2.07C16.17,74.89,17.05,74,17.04,72.82z"/>
	<path class="st0" d="M37.77,12.93c-7.26,0-14.52,0-21.78,0c-0.4,0-0.81,0.02-1.21-0.03c-1.06-0.13-1.69-0.78-1.8-1.82
		c-0.11-1.04,0.38-1.8,1.39-2.13c0.37-0.12,0.79-0.14,1.19-0.14c14.8-0.01,29.6-0.01,44.4,0c0.43,0,0.9,0.05,1.29,0.21
		c0.92,0.38,1.36,1.14,1.22,2.13c-0.13,0.99-0.74,1.59-1.73,1.75c-0.39,0.06-0.8,0.03-1.21,0.03
		C52.29,12.93,45.03,12.93,37.77,12.93z"/>
	<path class="st0" d="M16.06,116.25c-1.01,0-2.02,0.03-3.02-0.01c-1.33-0.06-2.17-0.93-2.13-2.13c0.03-1.17,0.85-1.95,2.14-1.97
		c2.02-0.03,4.03-0.03,6.05,0c1.22,0.02,2.01,0.8,2.07,1.92c0.06,1.17-0.72,2.09-1.96,2.17C18.16,116.29,17.11,116.24,16.06,116.25
		C16.06,116.24,16.06,116.24,16.06,116.25z"/>
	<path class="st0" d="M70.75,12.92c-0.69,0-1.37,0.03-2.06-0.01c-1.17-0.06-2.01-0.91-2.03-1.99c-0.03-1.02,0.74-2,1.82-2.07
		c1.53-0.09,3.06-0.1,4.59-0.01c1.16,0.07,1.88,1.04,1.82,2.16c-0.06,1.08-0.81,1.83-1.96,1.9C72.2,12.95,71.48,12.92,70.75,12.92z"
		/>
</g>
</svg>
