<?xml version="1.0" encoding="utf-8"?>
<!-- Generator: Adobe Illustrator 26.0.1, SVG Export Plug-In . SVG Version: 6.00 Build 0)  -->
<svg version="1.1" id="Layer_1" xmlns="http://www.w3.org/2000/svg" xmlns:xlink="http://www.w3.org/1999/xlink" x="0px" y="0px"
	 viewBox="0 0 125 125" style="enable-background:new 0 0 125 125;" xml:space="preserve">
<style type="text/css">
	.st0{fill:#D3A933;}
</style>
<g>
	<path class="st0" d="M117.46,57.24c-6.61,0.11-13.23,0.03-19.84,0.04c-3.06,0.01-5.11,1.93-5.11,4.75c0,2.81,2.05,4.73,5.11,4.75
		c2.85,0.02,5.7,0,8.56,0.01c0.33,0,0.66,0.05,1.1,0.08c-0.2,0.24-0.29,0.37-0.4,0.48c-4.31,4.32-8.61,8.64-12.96,12.92
		c-0.36,0.35-1.04,0.52-1.58,0.52c-7.33,0.03-14.66,0.06-21.98,0c-2.01-0.02-3.55,0.64-4.96,2.06
		c-10.56,10.62-21.16,21.19-31.74,31.78c-0.36,0.36-0.74,0.73-1.05,1.13c-1.46,1.94-1.28,4.64,0.51,6.25
		c0.66,0.59,1.54,0.91,2.32,1.36c0.63,0,1.27,0,1.9,0c1.15-0.81,2.44-1.47,3.42-2.44c9.97-9.9,19.9-19.85,29.82-29.8
		c0.57-0.57,1.14-0.83,1.96-0.82c7.4,0.03,14.8,0,22.21,0.03c1.78,0.01,3.2-0.57,4.45-1.83c4.51-4.56,9.06-9.08,13.6-13.61
		c0.29-0.29,0.61-0.57,1.09-1.02c0,0.62,0,0.99,0,1.37c0,2.65-0.04,5.31,0.02,7.96c0.04,1.92,0.88,3.45,2.7,4.26
		c1.82,0.82,3.63,0.65,5.1-0.69c0.75-0.68,1.14-1.74,1.69-2.64c0-7.69,0-15.37,0-23.06C122.43,58.22,120.42,57.19,117.46,57.24z"/>
	<path class="st0" d="M117.84,97.5c-2.51,0.46-3.96,2.41-3.96,5.38c0,4.82,0.08,9.65-0.03,14.47c-0.07,2.96,0.9,5.06,3.83,6.01
		c0.63,0,1.27,0,1.9,0c1.93-0.61,3.2-1.87,3.8-3.8c0-6.1,0-12.2,0-18.3c-0.04-0.07-0.09-0.13-0.12-0.21
		C122.19,98.37,120.21,97.08,117.84,97.5z"/>
	<path class="st0" d="M85.36,102.62c0-3.02-1.94-5.14-4.69-5.17c-2.81-0.03-4.81,2.11-4.81,5.17c-0.01,4.91,0.08,9.81-0.03,14.72
		c-0.07,2.96,0.9,5.07,3.83,6.02c0.63,0,1.27,0,1.9,0c2.93-0.95,3.9-3.06,3.83-6.02C85.28,112.44,85.36,107.53,85.36,102.62z"/>
	<path class="st0" d="M104.37,102.62c0-3.02-1.94-5.14-4.69-5.17c-2.81-0.03-4.81,2.11-4.81,5.18c-0.01,4.91,0.08,9.81-0.03,14.72
		c-0.07,2.96,0.9,5.07,3.83,6.02c0.63,0,1.27,0,1.9,0c2.93-0.95,3.9-3.06,3.83-6.02C104.29,112.44,104.38,107.53,104.37,102.62z"/>
	<path class="st0" d="M66.33,116.52c-0.11-2.37-1.9-4.3-4.21-4.55c-2.34-0.26-4.65,1.17-5.07,3.51c-0.66,3.71-0.36,6.5,3.58,7.88
		c0.63,0,1.27,0,1.9,0c2.93-0.95,4.03-3.06,3.81-6.01C66.32,117.08,66.35,116.8,66.33,116.52z"/>
	<path class="st0" d="M39.83,95.55c0.99-2.38-0.08-5.02-2.5-6.15c-0.5-0.23-1.01-0.45-1.52-0.66C18.83,81.44,9.3,64.7,11.71,46.44
		c2.64-19.95,18.03-34.37,38.11-35.18c14.69-0.6,26.43,5.39,35.03,17.33c3.38,4.69,5.43,9.98,6.49,15.66
		c0.53,2.88,2.93,4.63,5.53,4.16c2.7-0.5,4.36-2.98,3.86-5.74C95.97,16.34,70.13-3.55,41.31,2.85C19.37,7.72,1.57,26.5,1.61,51.63
		c0.11,1.78,0.2,3.56,0.33,5.33c0.05,0.75,0.16,1.5,0.28,2.24c1.94,11.57,7.25,21.34,15.84,29.32c4.58,4.25,9.8,7.49,15.67,9.66
		C36.22,99.09,38.83,97.94,39.83,95.55z"/>
	<path class="st0" d="M57.69,74.06c5.4-2.36,8.69-7.76,8.34-13.46c-0.4-6.39-4.15-11.41-9.94-13.1c-1.46-0.43-3.03-0.53-4.56-0.7
		c-2.43-0.27-4.15-1.88-4.41-4.24c-0.25-2.26,1.17-4.39,3.33-5.01c2.37-0.68,4.35,0.2,5.53,2.47c0.15,0.28,0.28,0.57,0.46,0.83
		c1.14,1.75,3.29,2.53,5.3,1.93c2.02-0.6,3.39-2.41,3.52-4.53c-0.2-0.72-0.33-1.47-0.62-2.14c-1.11-2.52-2.81-4.58-5.15-6.06
		c-0.92-0.58-2.28-0.85-2.75-1.66c-0.49-0.83-0.08-2.16-0.16-3.26c-0.18-2.59-2.13-4.42-4.68-4.45c-2.59-0.03-4.6,1.83-4.79,4.46
		c-0.05,0.75-0.09,1.51,0,2.26c0.1,0.93-0.25,1.35-1.11,1.74c-9.57,4.3-11.31,17.2-3.24,23.94c2.67,2.23,5.8,3.12,9.22,3.27
		c2.6,0.11,4.41,1.91,4.6,4.41c0.19,2.42-1.39,4.5-3.8,5.01c-2.14,0.45-4.17-0.64-5.43-2.92c-1.38-2.49-4.06-3.4-6.45-2.19
		c-2.36,1.2-3.22,3.98-2,6.52c1.22,2.53,2.95,4.73,5.45,5.93c2.15,1.04,3.05,2.24,2.84,4.7c-0.19,2.27,1.89,4.17,4.17,4.41
		c2.28,0.24,4.47-1.2,5.02-3.46c0.23-0.94,0.24-1.96,0.2-2.94C56.53,74.9,56.79,74.45,57.69,74.06z"/>
</g>
</svg>
