<?xml version="1.0" encoding="utf-8"?>
<!-- Generator: Adobe Illustrator 26.0.1, SVG Export Plug-In . SVG Version: 6.00 Build 0)  -->
<svg version="1.1" id="Layer_1" xmlns="http://www.w3.org/2000/svg" xmlns:xlink="http://www.w3.org/1999/xlink" x="0px" y="0px"
	 viewBox="0 0 125 125" style="enable-background:new 0 0 125 125;" xml:space="preserve">
<style type="text/css">
	.st0{fill:#D3A933;}
</style>
<g>
	<path class="st0" d="M97.97,92.47c-1.35-0.9-2.96-1.25-2.9-3.55c0.05-2.13,0.54-3.43,2.56-4.39c1.51-0.72,3.79-1.98,3.87-3.12
		c0.14-2.21-0.67-4.72-1.82-6.67c-0.49-0.84-2.83-0.53-4.29-0.9c-1.5-0.38-3.23-0.6-4.34-1.52c-1.7-1.4-1.62-3.22-0.27-5.2
		c0.98-1.44,2.22-3.77,1.68-4.92c-0.94-2-2.94-3.88-4.95-4.86c-1.02-0.49-3.12,0.97-4.61,1.77c-1.52,0.81-2.74,1.49-4.59,0.42
		c-1.79-1.03-2.22-2.28-2.07-4.1c0.09-1.08,0.13-2.19-0.02-3.25c-0.1-0.71-0.37-1.61-0.89-2.03c-3.47-2.81-7.86-2-9.81,1.99
		c-1.14,2.33-2.79,3.59-5.06,2.68c-1.4-0.56-2.3-2.36-3.41-3.61c-0.81-0.91-1.66-2.68-2.38-2.62c-2.39,0.18-4.92,0.67-7.01,1.77
		c-0.8,0.42-0.88,2.89-0.69,4.34c0.37,2.76-0.78,4.69-3.19,5.11c-1.54,0.26-3.33-0.98-5.01-1.53c-1.14-0.38-2.77-1.41-3.34-0.99
		c-1.95,1.42-3.92,3.13-5.08,5.19c-0.49,0.86,0.74,3.08,1.68,4.29c1.86,2.39,1.39,4.66-0.56,6.21c-1.16,0.92-3.31,0.56-4.99,0.89
		c-1.18,0.23-2.83,0.27-3.39,1.04c-2.84,3.93-2.02,7.51,2.3,9.65c2.31,1.15,3.22,2.84,2.47,4.93c-0.47,1.32-2.04,2.39-3.33,3.23
		c-1.67,1.08-3.56,1.68-3.03,4.36c1.06,5.35,1.36,5.84,5.34,6.47c0,2.83,0.03,5.48-0.01,8.14c-0.03,1.99,0.88,2.87,2.87,2.84
		c3.56-0.05,7.11-0.05,10.67-0.01c5.69,0.07,5.42-0.89,5.28,5.13c-0.07,2.73,1.03,3.32,3.5,3.28c7.31-0.13,14.62-0.04,21.94-0.04
		c6.1,0,6.17,0,6.32-5.97c0.04-1.75,0.53-2.49,2.37-2.43c3.36,0.11,6.72,0.05,10.08,0.02c6.63-0.05,5.96,0.88,6.03-6.01
		c0.02-2.48-0.98-5.64,3.38-5.5c0.13,0,0.36-0.24,0.4-0.4c0.7-2.34,1.83-4.69,1.85-7.05C101.53,94.5,99.3,93.36,97.97,92.47z
		 M69.04,119.62c-6.58,0.07-13.15,0.02-20.09,0.02c0-2.22,0.1-3.9-0.02-5.56c-0.15-2.13,0.53-3.46,2.62-4.36
		c2.13-0.92,3.22,0.08,4.55,1.42c6.36,6.41,4.8,5.94,10.86-0.05c1.36-1.34,2.51-2.3,4.55-1.33c1.95,0.93,2.79,2.25,2.76,4.39
		C74.17,120.77,74.67,119.56,69.04,119.62z M86.8,111.29c-1.48,0.03-2.96-0.03-4.44,0.01c-2.67,0.08-4.89,0.02-6.9-2.64
		c-1.34-1.77-4.41-2.29-6.78-3.14c-0.45-0.16-1.41,0.58-1.9,1.12c-1.59,1.74-3.07,3.58-5.29,6.2c-1.66-2.09-2.48-3.34-3.51-4.4
		c-3.18-3.27-7.33-3.7-10.16-0.07c-2.36,3.02-4.97,2.93-7.98,2.91c-2.47-0.02-4.94-0.05-7.41,0c-1.64,0.03-2.45-0.73-2.31-2.31
		c0.24-2.76-1.2-6.1,2.66-7.68c1.65-0.68,2.94-0.72,4.21,0.75c1.29,1.49,2.81,2.78,4.16,4.22c1.18,1.26,2.23,1.4,3.46,0.05
		c1.26-1.38,2.63-2.67,3.97-3.99c2.02-1.99,3.74-2,5.79-0.05c5.08,4.84,9.03,4.83,14.3-0.02c2.15-1.98,3.62-1.94,5.76,0.18
		c5.63,5.57,5.66,5.6,11.25-0.01c1.3-1.31,2.43-2.05,4.38-1.2c1.9,0.83,2.71,2,2.65,4.07C92.51,112.31,93.64,111.16,86.8,111.29z
		 M56.08,97.17c-0.04-3.01,2.32-5.53,5.3-5.65c2.73-0.1,5.58,2.62,5.67,5.42c0.09,2.85-2.48,5.44-5.45,5.48
		C58.44,102.48,56.12,100.27,56.08,97.17z M97.43,98.9c-1.31,2.19-2.75,0.93-4.25,0.19c-1.31-0.65-2.76-1.03-4.1-1.64
		c-1.71-0.78-3.03-0.37-4.18,1.03c-1.37,1.67-2.78,3.32-3.98,4.75c-4.29-1.78-5.35-7.17-10.27-6.12c-1.61-5.88-4.57-8.79-8.96-8.9
		c-4.54-0.12-7.37,2.58-9.37,9.06c-4.97-1.4-5.95,3.92-10.35,6c-1.02-1.28-2.29-2.79-3.48-4.37c-1.5-2-3.33-2.24-5.47-1.2
		c-1.41,0.69-2.77,1.64-4.26,1.95c-1.01,0.21-2.65-0.13-3.21-0.85c-0.83-1.07-0.84-2.65,0.96-3.35c0.18-0.07,0.34-0.21,0.51-0.31
		c3.94-2.35,5.32-5.67,4.1-10.2c-0.17-0.64-0.87-1.24-1.47-1.65c-0.97-0.67-2.23-0.99-3.03-1.8c-0.69-0.69-1.32-1.9-1.2-2.79
		c0.08-0.62,1.59-1.66,2.23-1.51c5.21,1.24,7.2-2.24,8.95-5.96c0.39-0.82,0.26-2.07-0.04-2.99c-0.36-1.1-1.37-1.99-1.69-3.09
		c-0.28-0.95-0.38-2.59,0.14-2.97c0.76-0.56,2.17-0.43,3.25-0.28c0.72,0.1,1.39,0.72,2.02,1.18c1.73,1.26,3.42,1.42,5.09-0.09
		c0.22-0.19,0.49-0.35,0.76-0.45c3.43-1.15,4.67-3.5,4.04-7.03c-0.3-1.7,0.02-3.42,2.23-3.22c0.89,0.08,1.82,1.14,2.5,1.95
		c0.99,1.18,1.56,3.38,2.67,3.65c2.43,0.58,5.14,0.55,7.61,0.08c1.05-0.2,1.82-2.09,2.65-3.26c0.86-1.21,1.15-3.05,3.39-2.48
		c2.22,0.56,1.75,2.24,1.85,3.77c0.1,1.54-0.27,3.66,0.58,4.48c1.64,1.58,3.88,2.92,6.08,3.39c1.39,0.3,3.23-1.02,4.73-1.86
		c1.31-0.74,2.28-1.25,3.62,0.08c1.3,1.3,0.68,2.22-0.05,3.33c-0.43,0.66-0.73,1.42-1.22,2.03c-1.29,1.6-1.37,3.13,0.03,4.7
		c0.33,0.37,0.7,0.77,0.82,1.23c0.92,3.51,3.41,4.11,6.56,3.75c1.57-0.18,3.54-0.31,3.49,1.94c-0.02,0.99-1.22,2.09-2.11,2.9
		c-1.21,1.1-3.41,1.74-3.78,3c-0.64,2.16-0.65,4.78-0.04,6.95c0.35,1.25,2.36,2.15,3.76,2.97C97.17,95.84,98.79,96.62,97.43,98.9z"
		/>
	<path class="st0" d="M52.18,13.12c1.06-0.1,2.31,0.12,3.15-0.37c1.29-0.76,2.3-2,3.42-3.03c0.23,0.13,0.46,0.26,0.68,0.39
		c0,5.72,0,11.44,0,17.17c0,1.41-0.1,2.97,1.92,3c2.01,0.03,2.37-1.42,2.39-3.03c0.02-1.88,0.01-3.76,0.01-5.63
		c0-3.89,0-7.77,0-12.53c1.75,1.65,2.66,2.89,3.88,3.55c0.89,0.49,2.19,0.22,3.31,0.29c-0.1-1.05,0.19-2.44-0.38-3.08
		c-2.29-2.58-4.75-5.05-7.37-7.29c-0.66-0.57-2.58-0.63-3.21-0.1c-2.7,2.3-5.23,4.82-7.58,7.48C51.85,10.58,52.23,12.04,52.18,13.12
		z"/>
	<path class="st0" d="M122.23,60.2c-2.82-1.63-5.57-3.4-8.5-4.79c-0.83-0.39-2.19,0.33-3.31,0.54c0.46,1.04,0.68,2.33,1.43,3.07
		c1,0.99,2.41,1.56,4.34,2.73c-3.16,0.89-5.59,1.51-7.99,2.26c-1.56,0.48-3.68,0.83-2.95,3.18c0.65,2.11,2.44,1.38,3.97,0.97
		c2.46-0.66,4.94-1.28,8.12-2.1c-1.17,2.21-2.11,3.52-2.54,4.98c-0.25,0.84,0.35,1.93,0.57,2.9c1.01-0.32,2.49-0.33,2.94-1.02
		c1.85-2.79,3.43-5.76,5.03-8.71C124.23,62.6,123.92,61.18,122.23,60.2z"/>
	<path class="st0" d="M16.36,60.43c-2.26-1.36-4.55-2.67-7.47-4.38c2.03-0.64,3.54-0.83,4.68-1.57c0.94-0.61,1.45-1.89,2.16-2.88
		c-1.06-0.4-2.2-1.27-3.15-1.1c-2.89,0.53-5.68,1.58-8.56,2.21c-2.52,0.55-3.22,2.06-2.66,4.33c0.75,3.06,1.49,6.13,2.53,9.09
		c0.3,0.86,1.63,1.36,2.49,2.02c0.52-1.02,1.46-2.04,1.47-3.06c0.01-1.47-0.65-2.95-1.25-5.3c3.05,1.71,5.25,3.18,7.65,4.17
		c1.1,0.45,3.23,0.46,3.8-0.23C19.35,62.11,17.62,61.19,16.36,60.43z"/>
	<path class="st0" d="M63.63,36.42c-0.38-0.89-1.47-1.49-2.24-2.21c-0.65,0.82-1.73,1.58-1.85,2.48c-0.28,2.03-0.26,4.14,0.01,6.17
		c0.11,0.8,1.18,2.03,1.84,2.05c0.75,0.02,1.89-0.97,2.19-1.77c0.38-1.04,0.09-2.32,0.09-3.5c0.02,0,0.03,0,0.05,0
		C63.72,38.55,64.02,37.34,63.63,36.42z"/>
	<path class="st0" d="M30.28,70.04c-0.39-0.95-0.43-1.47-0.69-1.63c-2.49-1.54-4.97-3.1-7.57-4.43c-0.39-0.2-1.63,0.62-2.02,1.25
		c-0.29,0.47-0.07,1.78,0.35,2.05c2.3,1.47,4.67,2.89,7.17,3.98C28.13,71.52,29.3,70.49,30.28,70.04z"/>
	<path class="st0" d="M93.94,68.07c-0.68,0.28-1.32,1.6-1.28,2.42c0.03,0.59,1.2,1.13,1.81,1.65c2.62-0.75,4.92-1.23,7.07-2.12
		c0.69-0.28,0.94-1.61,1.4-2.46c-0.85-0.44-1.77-1.36-2.54-1.24C98.2,66.65,96,67.24,93.94,68.07z"/>
	<path class="st0" d="M81.58,79.8c-1.08-0.25-2.26-1.12-2.89-2.05c-8.74-12.79-25.85-12.72-34.54,0.14
		c-0.61,0.91-1.85,1.68-2.93,1.93c-4.25,0.99-7.62,5.17-7.19,9.25c0.43,4.04,3.58,7.47,7.48,8.16c3.64,0.64,7.67-1.49,9.3-4.93
		c1.63-3.42,0.81-7.99-2.3-10.48c-1.78-1.42-1.45-2.34-0.3-3.83c7.15-9.31,22.07-8.24,27.92,2.28c-0.85,0.75-1.62,1.35-2.29,2.05
		c-2.93,3.04-3.36,7.38-1.12,10.88c2.13,3.33,6.12,4.83,9.77,3.69c4.39-1.38,6.54-4.64,6.24-9.49
		C88.49,83.73,85.51,80.72,81.58,79.8z M48.2,88.41c0.03,2.98-2.4,5.59-5.25,5.64c-2.8,0.04-5.47-2.61-5.52-5.49
		c-0.06-2.99,2.36-5.47,5.38-5.51C45.91,83,48.17,85.24,48.2,88.41z M80.11,94.04c-2.9-0.01-5.68-2.86-5.59-5.74
		c0.09-2.83,2.74-5.29,5.66-5.26c2.94,0.03,5.4,2.55,5.35,5.49C85.5,91.44,82.92,94.05,80.11,94.04z"/>
</g>
</svg>
