<?xml version="1.0" encoding="utf-8"?>
<!-- Generator: Adobe Illustrator 26.0.1, SVG Export Plug-In . SVG Version: 6.00 Build 0)  -->
<svg version="1.1" id="Layer_1" xmlns="http://www.w3.org/2000/svg" xmlns:xlink="http://www.w3.org/1999/xlink" x="0px" y="0px"
	 viewBox="0 0 125 125" style="enable-background:new 0 0 125 125;" xml:space="preserve">
<style type="text/css">
	.st0{fill:#D3A933;}
</style>
<g>
	<path class="st0" d="M86.31,103.16c0-0.76-0.01-1.53,0-2.3c0.05-3.07,2.05-5.18,4.9-5.21c2.94-0.03,5.03,2.05,5.07,5.16
		c0.05,3.82,0,7.65,0.03,11.47c0.01,0.8-0.25,1.06-1.06,1.06c-13.28-0.02-26.56-0.02-39.85,0c-0.82,0-1.06-0.28-1.05-1.07
		c0.03-3.82-0.03-7.65,0.03-11.47c0.04-2.79,1.88-4.87,4.38-5.13c2.62-0.27,4.92,1.24,5.48,3.73c0.21,0.95,0.16,1.96,0.15,2.94
		c0,0.66,0.18,0.96,0.9,0.96c6.78-0.02,13.57-0.01,20.35-0.02C85.81,103.28,85.97,103.23,86.31,103.16z M89.39,106.26
		c-0.3,0.07-0.46,0.14-0.61,0.14c-8.88,0.01-17.75,0-26.63,0.02c-0.74,0-0.89-0.34-0.88-0.98c0.03-1.48,0.02-2.96,0-4.44
		c-0.02-1.43-0.74-2.25-1.9-2.23c-1.14,0.02-1.86,0.86-1.87,2.28c-0.02,2.71,0.01,5.42-0.02,8.13c-0.01,0.72,0.19,1.02,0.97,1.02
		c11.26-0.02,22.52-0.02,33.78,0c0.76,0,1-0.27,1-1c-0.03-2.26,0-4.52-0.01-6.78c-0.01-0.78,0-1.57-0.16-2.32
		c-0.2-0.9-0.94-1.5-1.82-1.27c-0.64,0.17-1.27,0.76-1.67,1.33c-0.27,0.37-0.16,1.03-0.16,1.56
		C89.38,103.24,89.39,104.75,89.39,106.26z"/>
	<path class="st0" d="M115.09,48.53c2.31,8.1,4.61,16.13,6.95,24.34c-2.7,0-5.23,0-7.9,0c0,2.75-0.03,5.37,0.01,7.99
		c0.02,1.18-0.3,2.41,0.66,3.5c0.22,0.25-0.08,1.38-0.46,1.65c-0.37,0.26-1.38,0.14-1.7-0.19c-0.31-0.33-0.21-1.16-0.12-1.75
		c0.1-0.64,0.55-1.25,0.57-1.88c0.06-3.03,0.03-6.07,0.03-9.26c-6.51,0-12.9,0-19.46,0c0.14-0.61,0.22-1.04,0.34-1.46
		c2.06-7.22,4.14-14.44,6.18-21.67c0.26-0.92,0.6-1.32,1.66-1.3C106.23,48.58,110.63,48.53,115.09,48.53z M117.45,69.43
		c-0.02-0.27,0-0.48-0.05-0.67c-1.54-5.4-3.08-10.81-4.68-16.19c-0.1-0.34-0.74-0.72-1.13-0.73c-2.46-0.07-4.93,0.01-7.4-0.06
		c-0.89-0.02-1.2,0.35-1.41,1.14c-0.77,2.81-1.6,5.6-2.4,8.4c-0.76,2.67-1.51,5.35-2.29,8.12
		C104.62,69.43,111.01,69.43,117.45,69.43z"/>
	<path class="st0" d="M113.63,116.33c-3.93,0-7.74,0-11.66,0c0-0.57,0-1.12,0-1.84c1.35,0,2.72,0,4.25,0c0-0.69,0-1.21,0-1.73
		c0-12-0.01-24,0.01-36c0-2.38-0.39-2.1,2.19-2.12c0.29,0,0.57,0.04,1.04,0.07c0,13.21,0,26.41,0,39.75c1.47,0,2.77,0,4.18,0
		C113.63,115.12,113.63,115.66,113.63,116.33z"/>
	<path class="st0" d="M89.3,94.86c-1.69-0.03-2.81-1.01-2.93-2.61c-0.09-1.18-0.03-2.38-0.06-3.57c-0.04-1.6-0.66-2.24-2.26-2.24
		c-5.79-0.01-11.58-0.01-17.38,0c-1.58,0-2.24,0.66-2.26,2.24c-0.02,1.15,0.04,2.3-0.03,3.45c-0.09,1.71-1.36,2.82-2.99,2.68
		c0-2.49-0.19-5,0.05-7.46c0.25-2.47,2.33-4.03,4.82-4.03c6.04-0.01,12.08-0.01,18.12,0c2.86,0.01,4.93,1.99,5,4.82
		c0.05,2.05,0.01,4.11,0,6.16C89.38,94.46,89.33,94.62,89.3,94.86z"/>
	<path class="st0" d="M54.57,116.31c0-0.6,0-1.14,0-1.82c3.11,0,6.13-0.04,9.15,0.07c0.29,0.01,0.55,0.97,0.96,1.75
		C61.04,116.31,57.84,116.31,54.57,116.31z"/>
	<path class="st0" d="M96.16,114.48c0,0.68,0,1.23,0,1.87c-3.2,0-6.34,0-9.48,0c-0.53-1.69-0.41-1.86,1.3-1.87
		C90.68,114.48,93.38,114.48,96.16,114.48z"/>
	<path class="st0" d="M82.23,98.74c-0.24,0.2-0.48,0.58-0.72,0.58c-4.1,0.04-8.19,0.03-12.29,0.01c-0.2,0-0.39-0.27-0.59-0.42
		c0.21-0.17,0.42-0.49,0.63-0.49c4.25-0.03,8.51-0.02,12.76-0.02C82.09,98.51,82.16,98.62,82.23,98.74z"/>
	<path class="st0" d="M106.85,67.91c-0.36-0.26-0.84-0.47-0.82-0.63c0.15-1.44-0.71-2.48-1.29-3.65c-0.87-1.74-0.24-3.64,1.43-4.54
		c1.65-0.89,3.68-0.38,4.64,1.21c0.75,1.24,0.58,2.46-0.04,3.74c-0.47,0.96-0.68,2.05-1.04,3.07c-0.09,0.24-0.34,0.42-0.52,0.63
		c-0.15-0.24-0.46-0.51-0.42-0.7c0.24-1.09,0.58-2.17,0.86-3.25c0.2-0.77,0.6-1.58,0.49-2.31c-0.23-1.4-1.88-2.12-3.2-1.59
		c-1.35,0.54-1.87,2.01-1.2,3.38C107.09,66.04,107.09,66.04,106.85,67.91z"/>
	<path class="st0" d="M36.76,74.59c8.7-8.8,17.17-17.43,25.72-25.97c1.13-1.13,2.36-3.67,4.34-1.54c1.87,2.01-0.6,3.19-1.75,4.36
		c-8.52,8.59-17.14,17.09-25.64,25.69c-1.68,1.7-3.02,2.13-5.12,0.58c-3.28-2.43-6.8-4.54-10.2-6.81c-1.22-0.82-2.66-1.75-1.5-3.47
		c1.2-1.79,2.56-0.6,3.75,0.19C29.68,69.81,32.99,72.05,36.76,74.59z"/>
	<g>
		<path class="st0" d="M48.7,112.26c-0.87,0.48-1.68,0.91-2.5,1.29c-0.72,0.33-1.86,0.43-2.52,0.09
			c-9.63-5.01-18.96-10.47-26.45-18.53c-6.7-7.2-10.01-15.91-10.22-25.54c-0.34-15.45-0.09-30.92-0.09-46.7
			c3.37-0.63,6.73-1.25,10.09-1.9c8.99-1.75,17.43-5.07,25.73-8.85c1.03-0.47,2.59-0.72,3.53-0.29c11.3,5.22,22.99,9.1,35.35,10.81
			c0.26,0.04,0.51,0.17,0.76,0.26c1.15,5.95,0.85,30.92-0.17,44.85l4.25,2.29c0.05-0.73,0.08-1.45,0.09-2.17
			c0.12-15.18,0.03-30.36,0.1-45.54c0.01-2.24-0.72-3.2-3.06-3.47C70.17,17.32,57.56,13.12,45.57,7c-0.55,0-1.09,0-1.64,0
			c-0.37,0.24-0.72,0.52-1.12,0.72c-11.63,5.87-23.92,9.61-36.84,11.2C3.83,19.19,2.95,20,2.96,22.17c0.07,16-0.14,32,0.19,47.99
			c0.21,9.9,3.63,18.84,10.2,26.42c8.21,9.47,18.87,15.55,29.8,21.18c1.09,0.56,2.99,0.02,4.34-0.49c0.88-0.33,1.72-0.76,2.6-1.23
			L48.7,112.26z"/>
	</g>
</g>
</svg>
