<?xml version="1.0" encoding="utf-8"?>
<!-- Generator: Adobe Illustrator 26.0.1, SVG Export Plug-In . SVG Version: 6.00 Build 0)  -->
<svg version="1.1" id="Layer_1" xmlns="http://www.w3.org/2000/svg" xmlns:xlink="http://www.w3.org/1999/xlink" x="0px" y="0px"
	 viewBox="0 0 125 125" style="enable-background:new 0 0 125 125;" xml:space="preserve">
<style type="text/css">
	.st0{fill:#D3A933;}
</style>
<g>
	<path class="st0" d="M66.05,89.29c-1.54,0-2.88,0.03-4.22,0c-4.49-0.11-4.49-0.12-5.98,4.01c-3.47,9.63-6.9,19.27-10.46,28.85
		c-0.4,1.08-1.6,1.86-2.43,2.78c-0.77-0.88-1.82-1.63-2.26-2.65c-1.74-4.07-3.28-8.23-5-12.62c-4.11,2.33-7.99,4.61-11.96,6.72
		c-0.9,0.48-2.11,0.38-3.18,0.55c-0.08-1.15-0.54-2.43-0.19-3.43c3.86-11.09,7.82-22.14,11.82-33.18c0.57-1.58,0.52-2.61-0.8-3.92
		c-13.52-13.41-17.22-33.1-9.56-50.15C29.49,9.22,46.71-1.05,65.7,0.09c17.35,1.04,32.85,12.84,38.79,29.54
		c5.99,16.83,1.46,35.57-11.63,47.52c-1.56,1.43-1.84,2.53-1.13,4.47c3.84,10.56,7.57,21.16,11.22,31.79
		c0.35,1.01-0.07,2.28-0.13,3.44c-1.15-0.16-2.46-0.02-3.42-0.52c-3.92-2.06-7.73-4.32-11.85-6.65c-1.48,3.75-2.88,7.31-4.28,10.87
		c-0.28,0.7-0.4,1.51-0.84,2.09c-0.65,0.87-1.5,1.59-2.27,2.37c-0.74-0.79-1.81-1.45-2.16-2.38c-2.44-6.52-4.72-13.1-7.06-19.65
		C69.33,98.39,67.68,93.83,66.05,89.29z M62.63,3.93C40.16,3.83,21.86,22.02,21.81,44.5c-0.05,22.49,18.11,40.79,40.54,40.87
		c22.44,0.08,40.71-18.22,40.82-40.89C103.29,22.24,85.07,4.02,62.63,3.93z M42.97,117.4c3.58-10.07,6.91-19.44,10.12-28.47
		c-5.83-2.57-11.44-5.05-17.2-7.6c-3.43,9.57-6.95,19.38-10.7,29.84c3.57-2.05,6.51-3.75,9.46-5.42c2.52-1.43,3.15-1.19,4.27,1.57
		C40.19,110.48,41.46,113.64,42.97,117.4z M80.28,117.41c1.54-3.84,2.82-7.11,4.15-10.36c1-2.45,1.64-2.68,3.97-1.39
		c3.04,1.69,6.05,3.44,9.66,5.49c-3.62-10.21-7.03-19.8-10.3-29c-5.89,2.36-11.66,4.67-17.58,7.05
		C73.37,98.14,76.7,107.42,80.28,117.41z"/>
	<path class="st0" d="M62.78,9.38c19.76,0.21,35.29,16.15,35.06,35.97C97.62,64.73,81.62,80.3,62.09,80.13
		c-19.6-0.17-35.19-16.28-34.94-36.11C27.4,24.78,43.45,9.17,62.78,9.38z M93.94,44.56C93.91,27.27,79.73,13.19,62.4,13.25
		C45.04,13.3,31,27.42,31.06,44.74c0.07,17.24,14.11,31.29,31.28,31.3C79.9,76.04,93.98,62.02,93.94,44.56z"/>
	<path class="st0" d="M71.28,33.62c2.26,0,4.17-0.05,6.08,0.01c4.7,0.14,6.99,3.89,5.17,8.23c-0.41,0.99-0.33,2.17-0.55,3.25
		c-0.7,3.45-1.44,6.9-2.17,10.35c-0.19,0.91-0.65,1.83-0.58,2.72c0.3,3.81-1.81,6.28-5.7,6.32c-5.54,0.04-11.07,0.04-16.61,0
		c-2.75-0.02-5.46-1.46-8.22,0.75c-1.02,0.82-3.27,0.32-4.9,0.08c-2.4-0.35-3.92-2.24-3.94-4.81c-0.06-7.63-0.07-15.27,0-22.9
		c0.03-3.04,1.87-4.86,4.9-4.92c2.37-0.05,4.7-0.34,6.91,1.49c0.71,0.59,3.33-0.47,4.61-1.4c2.6-1.89,4.2-4.47,3.54-7.97
		c-0.17-0.89-0.03-1.84-0.03-2.76c0.04-3.9,1.21-4.7,4.97-3.37c3.78,1.33,6.32,4.81,6.51,9.01C71.34,29.52,71.28,31.36,71.28,33.62z
		 M63.9,22.49c0,1.83,0,3.24,0,4.64c0,4.48-4.44,9.84-8.83,10.56c-2,0.33-3.08,1.09-3,3.42c0.17,5.19,0.17,10.4,0,15.59
		c-0.07,2.27,0.86,3.44,2.9,3.49c6.2,0.16,12.4,0.17,18.6,0.13c0.52,0,1.2-0.76,1.45-1.32c0.11-0.23-0.65-1.18-1.13-1.29
		c-1.37-0.32-2.31-1.05-1.83-2.4c0.25-0.69,1.4-1.07,2.16-1.56c0.77-0.5,1.56-0.96,2.34-1.43c-0.62-0.53-1.31-1-1.84-1.61
		c-0.56-0.63-1.4-1.43-1.33-2.07c0.07-0.63,1.07-1.23,1.75-1.71c0.29-0.2,0.88,0.07,1.22-0.11c0.55-0.28,1.28-0.68,1.39-1.16
		c0.09-0.38-0.61-0.98-1-1.43c-0.68-0.79-1.4-1.54-2.11-2.3c0.89-0.55,1.79-1.09,2.66-1.66c0.7-0.45,1.37-0.94,2.06-1.42
		c-0.68-0.46-1.33-1.25-2.04-1.31c-2.25-0.17-4.53-0.14-6.79-0.05c-2.13,0.09-3.11-0.73-3.01-2.93c0.1-2.18,0.04-4.36,0.01-6.54
		C67.53,25.67,66.56,23.87,63.9,22.49z M47.81,61.12c0-8.32,0-16.49,0-24.64c-4.28-0.32-4.29-0.32-4.29,3.59
		c-0.01,5.87,0.01,11.74,0,17.61C43.51,61.65,43.62,61.74,47.81,61.12z"/>
</g>
</svg>
