<?xml version="1.0" encoding="utf-8"?>
<!-- Generator: Adobe Illustrator 26.0.1, SVG Export Plug-In . SVG Version: 6.00 Build 0)  -->
<svg version="1.1" id="Layer_1" xmlns="http://www.w3.org/2000/svg" xmlns:xlink="http://www.w3.org/1999/xlink" x="0px" y="0px"
	 viewBox="0 0 125 125" style="enable-background:new 0 0 125 125;" xml:space="preserve">
<style type="text/css">
	.st0{fill:#FFFFFF;}
	.st1{fill:none;stroke:#FFFFFF;stroke-width:1.5;stroke-miterlimit:10;}
</style>
<g>
	<path class="st0" d="M43.16,55.81c6.63-0.02,12.96,1.32,18.87,4.34c1.88,0.96,3.09,0.99,4.81-0.61
		c11.17-10.41,27.02-12.41,40.1-5.26c12.98,7.1,20.11,21.84,17.54,36.25c-2.64,14.8-14.33,26.05-29.41,28.32
		c-15.7,2.36-31.42-7.07-36.96-22.45c-0.97-2.69-2.23-3.39-4.96-3.37c-16.54,0.13-33.08,0.07-49.61,0.06c-3.68,0-4.01-0.47-3.13-4.1
		C5.1,69.66,22.68,56.01,43.16,55.81z M58.78,84.78c0.08,17.59,14.28,31.61,31.93,31.5c17.39-0.1,31.42-14.25,31.41-31.69
		c-0.01-17.55-14.31-31.84-31.77-31.74C72.77,52.95,58.7,67.19,58.78,84.78z M56.25,89.97c-1.15-9.54,0.85-18.3,6.68-26.37
		c-13.12-6.5-25.89-6.88-38.58-0.46C13.22,68.78,6.23,77.86,3.01,90.28c17.56,0,34.58,0,51.59-0.01
		C55.03,90.27,55.47,90.12,56.25,89.97z"/>
	<path class="st0" d="M43.03,52.09C30.29,52.07,19.9,41.75,19.85,29.05C19.81,16.28,30.46,5.69,43.25,5.79
		c12.69,0.1,22.99,10.57,22.92,23.3C66.09,41.93,55.86,52.1,43.03,52.09z M42.91,49.28c11.24,0.08,20.27-8.74,20.44-19.98
		c0.17-11.31-8.89-20.62-20.15-20.7c-11.17-0.08-20.55,9.25-20.53,20.42C22.68,40.14,31.74,49.2,42.91,49.28z"/>
	<path class="st0" d="M56.25,89.97c-0.78,0.15-1.21,0.3-1.65,0.3c-17.01,0.01-34.02,0.01-51.59,0.01
		c3.23-12.42,10.21-21.5,21.34-27.14c12.69-6.42,25.46-6.04,38.58,0.46C57.1,71.67,55.09,80.43,56.25,89.97z"/>
	<path class="st0" d="M42.91,49.28c-11.17-0.08-20.23-9.14-20.25-20.26C22.64,17.85,32.02,8.52,43.19,8.6
		c11.26,0.08,20.33,9.4,20.15,20.7C63.17,40.54,54.15,49.36,42.91,49.28z"/>
	<g>
		<path class="st0" d="M82.99,81.06c0.49-0.73,1.03-1.41,1.42-2.15c1.49-2.84,3.37-5.41,5.37-7.88c0.87-1.07,1.34-2.25,1.6-3.57
			c0.21-1.07,0.51-2.13,0.8-3.19c0.09-0.32,0.26-0.62,0.43-0.91c0.96-1.57,2.96-1.87,4.34-0.65c0.67,0.59,1.11,1.34,1.4,2.18
			c0.78,2.26,0.89,4.54,0.02,6.79c-0.33,0.87-0.87,1.65-1.26,2.5c-0.36,0.78-0.65,1.59-0.97,2.39c-0.04,0.09-0.04,0.19-0.06,0.34
			c0.52,0.07,1.02,0.15,1.52,0.19c1.43,0.13,2.84-0.02,4.27-0.12c2.36-0.17,4.98,1.28,5.7,3.75c0.26,0.88,0.29,1.77-0.05,2.64
			c-0.03,0.07-0.03,0.19,0.01,0.24c0.67,0.94,0.74,2.01,0.64,3.1c-0.08,0.93-0.4,1.78-0.93,2.56c-0.05,0.07-0.06,0.19-0.04,0.27
			c0.54,1.92,0.25,3.66-1.08,5.19c-0.09,0.1-0.14,0.27-0.14,0.41c-0.02,1.57-0.62,2.87-1.8,3.9c-0.69,0.61-1.56,0.83-2.45,0.87
			c-1.94,0.09-3.88,0.16-5.82,0.16c-3.01,0-6.03-0.03-9.04-0.09c-0.7-0.01-1.41-0.14-2.09-0.29c-0.55-0.12-1.06-0.04-1.59,0.03
			c-0.06,0.01-0.13,0.07-0.18,0.11c-0.51,0.39-1.08,0.58-1.72,0.58c-2.29,0-4.58,0-6.86,0c-1.54,0-2.73-1.19-2.73-2.73
			c0-4.81,0-9.62,0-14.44c0-1.52,1.11-2.71,2.63-2.74c2.37-0.03,4.74-0.01,7.11-0.01C81.98,80.52,82.47,80.7,82.99,81.06z
			 M84.12,97.58c0.2,0.02,0.37,0.01,0.53,0.05c1.12,0.28,2.25,0.37,3.4,0.37c3.46,0,6.92,0.06,10.38,0.06
			c1.18,0,2.36-0.07,3.53-0.21c1.29-0.16,2.27-1.7,1.96-2.97c-0.1-0.41,0-0.75,0.3-1.04c0.11-0.11,0.22-0.22,0.32-0.33
			c1.03-1.15,1.22-2.41,0.53-3.79c-0.2-0.41-0.15-0.83,0.17-1.16c0.8-0.8,1.02-1.79,0.95-2.88c-0.03-0.48-0.22-0.88-0.61-1.2
			c-0.51-0.41-0.56-0.98-0.15-1.49c0.24-0.29,0.34-0.62,0.33-0.98c-0.02-0.61-0.21-1.16-0.6-1.63c-0.85-1.01-1.95-1.48-3.25-1.37
			c-1.44,0.12-2.88,0.25-4.32,0.11c-0.78-0.07-1.57-0.19-2.33-0.38c-0.73-0.19-1.13-0.74-1.16-1.5c-0.01-0.36,0.02-0.73,0.09-1.08
			c0.25-1.15,0.77-2.19,1.3-3.22c0.25-0.5,0.53-0.99,0.8-1.49c0.67-1.24,0.75-2.58,0.62-3.95c-0.09-0.97-0.31-1.9-0.84-2.73
			c-0.16-0.25-0.37-0.48-0.61-0.65c-0.35-0.26-0.8-0.16-1.05,0.21c-0.15,0.22-0.29,0.47-0.36,0.73c-0.22,0.78-0.44,1.57-0.6,2.37
			c-0.56,2.74-0.61,2.93-2.31,5.12c-1.81,2.33-3.57,4.69-4.94,7.32c-0.51,0.97-1.14,1.86-1.89,2.66c-0.13,0.14-0.19,0.29-0.19,0.48
			c0,4.76,0,9.52,0,14.27C84.12,97.37,84.12,97.47,84.12,97.58z M73.72,90.46c0,2.32,0.02,4.63-0.01,6.95
			c-0.01,0.8,0.35,1.01,1,1.01c2.16-0.02,4.32-0.01,6.48-0.01c0.6,0,0.86-0.25,0.86-0.86c0-4.72,0-9.44,0-14.16
			c0-0.59-0.25-0.85-0.84-0.85c-2.22,0-4.43,0-6.65,0c-0.6,0-0.84,0.25-0.84,0.85C73.72,85.73,73.72,88.1,73.72,90.46z"/>
		<path class="st0" d="M80.6,95.59c-0.01,0.91-0.75,1.63-1.67,1.61c-0.89-0.01-1.62-0.77-1.6-1.66c0.02-0.91,0.76-1.62,1.67-1.61
			C79.9,93.95,80.61,94.69,80.6,95.59z"/>
	</g>
	<polygon class="st1" points="15.16,97.28 18.57,104.19 26.19,105.3 20.67,110.67 21.98,118.26 15.16,114.68 8.34,118.26 
		9.64,110.67 4.13,105.3 11.75,104.19 	"/>
	<polygon class="st1" points="42.88,97.28 46.29,104.19 53.91,105.3 48.4,110.67 49.7,118.26 42.88,114.68 36.06,118.26 
		37.37,110.67 31.85,105.3 39.47,104.19 	"/>
</g>
</svg>
