<?xml version="1.0" encoding="utf-8"?>
<!-- Generator: Adobe Illustrator 26.0.1, SVG Export Plug-In . SVG Version: 6.00 Build 0)  -->
<svg version="1.1" id="Layer_1" xmlns="http://www.w3.org/2000/svg" xmlns:xlink="http://www.w3.org/1999/xlink" x="0px" y="0px"
	 viewBox="0 0 125 125" style="enable-background:new 0 0 125 125;" xml:space="preserve">
<style type="text/css">
	.st0{fill:#FFFFFF;}
</style>
<path class="st0" d="M97.2,71.96c3.14,5.53,6.24,10.98,9.35,16.44c2.92,5.15,5.78,10.33,8.81,15.41c1.1,1.83-0.51,3.96-2.31,3.94
	c-6.22-0.07-12.45-0.02-18.67-0.04c-0.66,0-1.01,0.19-1.34,0.77c-2.75,4.96-5.55,9.89-8.3,14.85C84.2,124.3,83.56,125,82.4,125
	c-1.16,0-1.82-0.72-2.36-1.65c-5.62-9.73-11.25-19.45-16.87-29.17c-0.15-0.25-0.31-0.5-0.51-0.84c-0.21,0.32-0.37,0.56-0.52,0.81
	c-5.65,9.65-11.3,19.29-16.95,28.94c-1.23,2.1-3.34,2.1-4.56-0.02c-2.81-4.86-5.61-9.73-8.38-14.62c-0.31-0.55-0.64-0.74-1.28-0.74
	c-6.14,0.03-12.28-0.05-18.42,0.05c-2.3,0.04-3.51-2.16-2.38-4.13C16.15,93.2,22.01,82.7,27.92,72.22c0.13-0.24,0.25-0.48,0.4-0.75
	c-0.19-0.11-0.34-0.22-0.51-0.31c-2.04-1.19-2.93-3.08-2.59-5.4c0.5-3.44,0.98-6.89,1.42-10.34c0.05-0.36-0.11-0.87-0.36-1.14
	c-2.24-2.48-4.47-4.98-6.82-7.36c-1.9-1.93-2.57-5.28,0.07-7.82c2.35-2.26,4.51-4.71,6.79-7.05c0.43-0.44,0.56-0.86,0.48-1.46
	c-0.43-3.4-0.8-6.8-1.24-10.2c-0.38-3,1.37-5.4,4.37-5.92c3.43-0.6,6.86-1.19,10.27-1.83c0.36-0.07,0.76-0.41,0.95-0.74
	c1.71-3,3.37-6.03,5.05-9.04c1.56-2.81,4.07-3.57,6.96-2.16c3.02,1.48,6.06,2.94,9.07,4.45c0.58,0.29,1.03,0.27,1.6,0
	c2.99-1.42,5.98-2.86,9.03-4.17c0.95-0.41,2.06-0.63,3.09-0.59c1.7,0.06,2.96,1.02,3.78,2.53c1.7,3.16,3.43,6.31,5.12,9.47
	c0.26,0.48,0.57,0.71,1.12,0.81c3.36,0.64,6.72,1.31,10.08,1.98c3,0.6,4.66,2.87,4.27,5.91c-0.44,3.4-0.92,6.79-1.42,10.18
	c-0.09,0.62,0.01,1.07,0.46,1.54c2.3,2.43,4.51,4.94,6.84,7.34c1.88,1.94,2.27,5.3-0.07,7.58c-2.41,2.35-4.69,4.85-6.98,7.32
	c-0.25,0.27-0.42,0.77-0.38,1.14c0.37,3.41,0.81,6.8,1.2,10.21C100.24,68.8,99.39,70.68,97.2,71.96z M50.08,81.85
	c0.36-0.16,0.6-0.27,0.85-0.38c3.17-1.49,6.35-2.97,9.51-4.48c1.49-0.7,2.95-0.72,4.43,0.01c3.1,1.52,6.2,3.03,9.3,4.55
	c0.26,0.13,0.53,0.24,0.82,0.36c0.17-0.28,0.31-0.52,0.44-0.75c1.68-3.02,3.35-6.03,5.02-9.06c0.81-1.46,2.02-2.36,3.66-2.65
	c1.73-0.31,3.46-0.57,5.19-0.86c1.91-0.32,3.82-0.64,5.74-0.97c0-0.27,0.02-0.46,0-0.64c-0.4-3.37-0.76-6.75-1.24-10.12
	c-0.28-2,0.14-3.69,1.66-5.06c0.45-0.4,0.85-0.86,1.27-1.29c2.08-2.14,4.15-4.29,6.26-6.46c-0.21-0.24-0.38-0.45-0.56-0.64
	c-2.4-2.6-4.8-5.19-7.2-7.79c-1.03-1.12-1.43-2.45-1.24-3.94c0.33-2.44,0.7-4.88,1.04-7.32c0.19-1.37,0.37-2.75,0.56-4.13
	c-0.26-0.07-0.41-0.12-0.57-0.16c-3.41-0.67-6.82-1.4-10.24-2c-1.91-0.33-3.17-1.33-4.03-3c-1.56-3.02-3.17-6.01-4.76-9.01
	c-0.12-0.23-0.27-0.46-0.41-0.7c-0.24,0.1-0.42,0.16-0.59,0.24c-3.24,1.48-6.48,2.95-9.71,4.46c-1.52,0.71-3,0.74-4.5-0.01
	c-1.52-0.76-3.05-1.49-4.58-2.24c-1.82-0.88-3.63-1.77-5.5-2.68c-0.21,0.36-0.39,0.66-0.56,0.97c-1.64,2.95-3.28,5.89-4.91,8.84
	c-0.82,1.49-2.05,2.39-3.73,2.68c-2.16,0.37-4.32,0.76-6.47,1.14c-1.55,0.28-3.1,0.56-4.71,0.85c0.03,0.37,0.04,0.64,0.08,0.91
	c0.41,3.4,0.78,6.81,1.24,10.2c0.25,1.8-0.2,3.28-1.46,4.58c-1.97,2.02-3.91,4.08-5.85,6.12c-0.58,0.61-1.16,1.23-1.76,1.86
	c0.22,0.26,0.38,0.47,0.57,0.67c2.33,2.55,4.65,5.11,6.98,7.65c1.07,1.17,1.52,2.51,1.31,4.08c-0.26,1.93-0.54,3.85-0.81,5.78
	c-0.26,1.86-0.51,3.73-0.78,5.62c0.26,0.08,0.44,0.15,0.62,0.18c3.56,0.66,7.1,1.36,10.67,1.96c1.66,0.28,2.81,1.14,3.6,2.56
	c0.54,0.98,1.06,1.98,1.58,2.97C47.55,77.09,48.8,79.43,50.08,81.85z M82.37,117.62c0.24-0.4,0.39-0.65,0.54-0.91
	c2.31-4.1,4.64-8.2,6.92-12.32c0.61-1.11,1.46-1.6,2.72-1.59c5.18,0.03,10.36,0.01,15.54,0.01c0.31,0,0.62,0,0.98,0
	c-0.05-0.21-0.06-0.29-0.09-0.35c-5.49-9.67-10.98-19.34-16.49-29c-0.11-0.19-0.53-0.35-0.76-0.31c-2.08,0.34-4.16,0.71-6.22,1.14
	c-0.36,0.07-0.78,0.39-0.96,0.71c-1.68,2.95-3.41,5.88-4.94,8.91c-1.41,2.8-4.66,3.63-7.27,2.26c-2.98-1.56-6.05-2.96-9.06-4.47
	c-0.55-0.27-0.97-0.26-1.48,0.2C68.61,93.76,75.45,105.62,82.37,117.62z M57.22,83.9c-1.62,0.75-3.13,1.47-4.66,2.15
	c-2.91,1.29-5.43,0.42-6.93-2.36c-1.64-3.04-3.3-6.06-4.92-9.11c-0.28-0.52-0.62-0.74-1.19-0.83c-1.79-0.28-3.57-0.57-5.34-0.94
	c-0.67-0.14-1,0-1.35,0.61c-5.37,9.55-10.76,19.09-16.15,28.63c-0.13,0.22-0.23,0.46-0.4,0.78c0.44,0,0.74,0,1.04,0
	c5.21,0,10.41,0.01,15.62-0.01c1.17-0.01,1.99,0.47,2.56,1.46c0.68,1.19,1.37,2.37,2.06,3.56c1.8,3.1,3.59,6.2,5.45,9.41
	c0.21-0.33,0.37-0.58,0.51-0.83c2.76-4.8,5.51-9.6,8.27-14.39c2.51-4.37,5.02-8.74,7.52-13.12c0.15-0.27,0.31-0.72,0.2-0.94
	C58.8,86.6,58.01,85.28,57.22,83.9z"/>
<path class="st0" d="M62.7,18.86c13.65,0.04,24.65,11.15,24.61,24.87c-0.05,13.51-11.24,24.55-24.83,24.49
	c-13.51-0.06-24.54-11.24-24.48-24.84C38.04,29.86,49.17,18.82,62.7,18.86z M62.65,23.76c-10.85,0-19.74,8.87-19.76,19.72
	c-0.02,10.88,8.89,19.83,19.75,19.82C73.48,63.3,82.4,54.39,82.4,43.58C82.4,32.66,73.53,23.77,62.65,23.76z"/>
<path class="st0" d="M58.95,46.48c0.24-0.34,0.39-0.64,0.62-0.87c3.44-3.46,6.89-6.9,10.33-10.35c0.74-0.75,1.58-1.17,2.65-0.94
	c1.99,0.42,2.81,2.73,1.52,4.31c-0.4,0.48-0.87,0.91-1.32,1.35c-3.91,3.91-7.82,7.83-11.73,11.74c-1.49,1.49-2.92,1.49-4.41,0
	c-1.67-1.66-3.33-3.33-4.99-5c-1.24-1.25-1.32-2.91-0.2-4.01c1.12-1.1,2.74-1.01,4.01,0.25C56.52,44.05,57.62,45.16,58.95,46.48z"/>
</svg>
