<?xml version="1.0" encoding="utf-8"?>
<!-- Generator: Adobe Illustrator 26.0.1, SVG Export Plug-In . SVG Version: 6.00 Build 0)  -->
<svg version="1.1" id="Layer_1" xmlns="http://www.w3.org/2000/svg" xmlns:xlink="http://www.w3.org/1999/xlink" x="0px" y="0px"
	 viewBox="0 0 125 125" style="enable-background:new 0 0 125 125;" xml:space="preserve">
<style type="text/css">
	.st0{fill:#FFFFFF;}
</style>
<g>
	<path class="st0" d="M4.75,84.12V62.7c0-3.01,2.12-5.62,4.97-6.19l5.78-1.63l3.34-0.98c0.41-0.08,0.73-0.49,0.73-0.9V49.1
		l-0.16-0.16c-1.71-1.3-2.77-3.34-3.01-5.46c-0.08-0.73-0.08-1.3-0.16-1.63h-0.65c-0.65,0-1.22-0.49-1.3-1.06l-0.57-3.42
		c-0.16-0.98,0.65-1.87,1.63-1.87l0.16-6.27c0-3.83,3.18-7.01,7.09-7.01h4.56c3.91,0,7.09,3.1,7.09,7.01l0.16,6.27
		c0.98,0,1.79,0.9,1.63,1.87l-0.49,3.26c-0.08,0.65-0.65,1.06-1.3,1.06h-0.65c-0.08,0.33-0.08,0.98-0.16,1.63
		c-0.16,2.12-1.3,4.15-3.01,5.46l-0.24,0.16v3.91c0,0.49,0.33,0.81,0.73,0.9l2.61,0.73c1.47-0.9,3.01-1.63,4.72-1.95h0.08
		l-4.97-1.38V50.4c1.71-1.71,2.77-3.83,3.1-6.11c1.14-0.65,2.04-1.87,2.2-3.18l0.49-3.26c0.24-1.38-0.16-2.85-1.14-3.91
		c-0.16-0.16-0.33-0.41-0.49-0.49l0.08-4.24c0-5.62-4.64-10.18-10.34-10.18h-4.56c-5.7,0-10.34,4.56-10.34,10.18l-0.08,4.24
		c-0.16,0.16-0.33,0.33-0.57,0.57c-0.9,1.06-1.3,2.53-1.14,3.91l0.49,3.26c0.24,1.38,1.06,2.53,2.2,3.26
		c0.33,2.36,1.47,4.48,3.1,6.11v0.65l-1.71,0.49l-5.7,1.63c-4.32,0.98-7.41,4.89-7.41,9.37v21.42V86l1.63,0.98l23.29,13.77v-3.75
		L4.75,84.12z"/>
	<path class="st0" d="M116.17,53.42l-7.41-2.12v-0.73c1.63-1.63,2.77-3.83,3.09-6.11c1.14-0.65,1.95-1.79,2.2-3.26l0.49-3.26
		c0.24-1.38-0.16-2.85-1.14-3.91c-0.16-0.16-0.33-0.41-0.49-0.57l-0.08-4.24c0-5.62-4.64-10.18-10.34-10.18h-4.56
		c-5.7,0-10.34,4.56-10.34,10.18l-0.08,4.24c-0.16,0.16-0.33,0.33-0.49,0.49c-0.9,1.06-1.3,2.52-1.14,3.91l0.49,3.26
		c0.24,1.38,1.06,2.61,2.2,3.26c0.33,2.28,1.47,4.48,3.1,6.11v0.73l-1.71,0.49l-3.09,0.9l0,0c1.71,0.41,3.34,1.06,4.81,2.04
		l2.44-0.73c0.41-0.08,0.73-0.49,0.73-0.9V49.1l-0.24-0.16c-1.71-1.3-2.85-3.34-3.01-5.46c-0.08-0.73-0.16-1.38-0.16-1.63h-0.65
		c-0.65,0-1.22-0.49-1.3-1.06l-0.49-3.26c-0.16-0.98,0.65-1.87,1.63-1.87l0.16-6.27c0-3.83,3.18-6.92,7.09-6.92h4.56
		c3.91,0,7.09,3.1,7.09,6.92l0.16,6.27c0.98,0,1.79,0.9,1.63,1.87l-0.49,3.26c-0.08,0.65-0.65,1.06-1.3,1.06h-0.65
		c-0.08,0.33-0.08,0.98-0.16,1.63c-0.16,2.12-1.3,4.15-3.01,5.46l-0.24,0.16v3.91c0,0.41,0.33,0.81,0.73,0.9l9.12,2.61
		c2.93,0.57,4.97,3.18,4.97,6.19v21.42L98.66,96.83v3.75l23.21-13.68l1.63-0.98v-1.87V62.79C123.67,58.31,120.57,54.4,116.17,53.42z
		"/>
	<path class="st0" d="M52.32,21.9c2.28,0,4.24-1.22,5.29-3.26l0.08-0.16c2.04,2.12,4.89,3.34,7.9,3.34h8.88v-2.93v-0.33h-8.88
		c-2.77,0-5.38-1.55-6.68-3.91l-1.47-2.69l-2.69,5.13c-0.49,0.9-1.39,1.47-2.44,1.47h-1.55l-0.08,3.34l0,0L52.32,21.9L52.32,21.9z"
		/>
	<path class="st0" d="M86.36,55.05L73.9,51.46v-0.98v-2.12c2.77-2.53,4.48-5.95,4.81-9.69c1.71-0.65,2.93-2.2,3.26-4.07l0.82-4.97
		c0.24-1.63-0.25-3.34-1.3-4.56c-0.33-0.41-0.73-0.73-1.14-1.06l-0.16-7.25C80.17,9.19,73.9,3,66.16,3h-6.92
		C51.5,3,45.23,9.19,45.23,16.77l-0.16,7.25c-0.41,0.33-0.81,0.65-1.14,1.06c-1.06,1.22-1.55,2.93-1.3,4.56l0.81,4.97
		c0.33,1.87,1.55,3.34,3.26,3.99c0.33,3.75,2.12,7.17,4.81,9.69v3.1l-3.83,1.06l-8.63,2.44c-5.86,1.22-10.02,6.52-10.02,12.54v32.42
		v1.87l1.63,0.98l30.95,18.33l1.71,0.98l1.63-0.98l30.14-18.33l1.55-0.98v-1.87V67.59C96.38,61.56,92.15,56.35,86.36,55.05z
		 M93.12,100.01l-30.14,18.33l-30.95-18.33V67.59c0-4.56,3.18-8.47,7.57-9.37l8.8-2.52l5.05-1.47c0.65-0.16,1.14-0.73,1.14-1.38
		v-2.04l0.24,0.16c1.71,1.14,3.67,1.79,5.7,1.79h1.63v-3.26h-1.63c-1.39,0-2.69-0.41-3.83-1.22l-2.12-1.47l0,0l-0.33-0.24
		c-2.61-2.04-4.24-5.05-4.56-8.31c-0.08-1.06-0.16-2.04-0.24-2.53h-1.06c-0.98,0-1.79-0.73-1.95-1.63l-0.81-4.97
		c-0.24-1.47,0.9-2.85,2.44-2.85l0.24-9.53c0-5.86,4.81-10.59,10.75-10.59H66c5.95,0,10.75,4.72,10.75,10.59L77,26.29
		c1.55,0,2.69,1.3,2.44,2.85l-0.81,4.97c-0.16,0.98-0.98,1.63-1.95,1.63h-1.06c-0.08,0.49-0.16,1.47-0.24,2.53
		c-0.24,3.26-1.95,6.27-4.56,8.31l-0.33,0.24v3.67v2.36v6.11h3.26V54.8l11.65,3.34c4.4,0.9,7.57,4.81,7.57,9.37v32.5H93.12
		L93.12,100.01z"/>
	<path class="st0" d="M67.95,72.72l2.2-7.74c0.16-0.49,0-1.06-0.24-1.47c-0.33-0.41-0.81-0.65-1.3-0.65H57.69
		c-0.49,0-0.98,0.24-1.3,0.65c-0.33,0.41-0.41,0.9-0.24,1.47l2.2,7.74l-3.01,34.7c-0.08,0.57,0.16,1.06,0.57,1.39l6.03,4.97
		c0.33,0.24,0.65,0.41,1.06,0.41s0.73-0.16,1.06-0.41l6.03-4.97c0.41-0.33,0.65-0.9,0.57-1.39L67.95,72.72z M66.41,66.21l-1.3,4.72
		h-3.83l-1.38-4.72H66.41z M63.07,110.43l-4.4-3.58l2.77-32.66h3.34l2.61,32.66L63.07,110.43z"/>
</g>
</svg>
