<?xml version="1.0" encoding="utf-8"?>
<!-- Generator: Adobe Illustrator 26.0.1, SVG Export Plug-In . SVG Version: 6.00 Build 0)  -->
<svg version="1.1" id="Layer_1" xmlns="http://www.w3.org/2000/svg" xmlns:xlink="http://www.w3.org/1999/xlink" x="0px" y="0px"
	 viewBox="0 0 125 125" style="enable-background:new 0 0 125 125;" xml:space="preserve">
<style type="text/css">
	.st0{fill:#FFFFFF;}
</style>
<g>
	<path class="st0" d="M45.42,95.7c0.22-2.42,0.34-4.22,0.55-6c0.08-0.72-0.13-1.13-0.67-1.66c-1.69-1.65-3.37-1.94-5.44-0.68
		c-1.26,0.77-2.71,1.2-4.09,1.77c-1.16,0.49-2.13,0.25-2.89-0.79c-1.36-1.88-2.74-3.75-4.1-5.64c-0.75-1.04-0.66-2.03,0.17-2.99
		c1.38-1.59,2.73-3.21,4.15-4.76c0.57-0.62,0.59-1.15,0.45-1.97c-0.37-2.27-1.58-3.34-3.85-3.56c-1.47-0.14-2.9-0.67-4.35-0.99
		c-1.31-0.28-1.97-1.03-1.97-2.38c0.01-2.28,0.01-4.56,0-6.85c-0.01-1.34,0.63-2.11,1.94-2.4c2.14-0.48,4.25-1.04,6.4-1.49
		c0.66-0.14,0.95-0.43,1.16-1.03c1.03-3.04,1.04-3.04-1.06-5.46c-0.95-1.09-1.9-2.19-2.85-3.28c-0.87-1-0.93-2.02-0.13-3.1
		c1.33-1.8,2.62-3.63,3.95-5.42c0.93-1.26,1.64-1.46,3.07-0.87c1.98,0.81,3.96,1.63,5.92,2.51c0.7,0.31,1.15,0.16,1.78-0.21
		c1.78-1.06,2.92-2.25,2.29-4.59c-0.39-1.46-0.3-3.05-0.43-4.58c-0.13-1.48,0.34-2.25,1.71-2.7c2.08-0.69,4.16-1.36,6.24-2.02
		c1.6-0.51,2.33-0.24,3.2,1.18c1.08,1.75,2.16,3.51,3.18,5.29c0.39,0.67,0.84,0.89,1.63,0.99c2.3,0.32,3.77-0.46,4.68-2.63
		c0.56-1.32,1.44-2.5,2.2-3.73c0.8-1.29,1.58-1.62,2.99-1.18c2.17,0.68,4.33,1.39,6.49,2.11c1.2,0.4,1.76,1.23,1.65,2.51
		c-0.2,2.18-0.35,4.37-0.59,6.55c-0.08,0.71,0.21,1.05,0.69,1.52c1.67,1.66,3.35,1.99,5.43,0.71c1.22-0.75,2.63-1.17,3.97-1.72
		c1.45-0.59,2.16-0.41,3.08,0.82c1.33,1.79,2.65,3.6,3.94,5.43c0.86,1.21,0.82,2.03-0.16,3.19c-1.33,1.58-2.65,3.16-4.06,4.67
		c-0.64,0.68-0.55,1.26-0.42,2.1c0.36,2.25,1.62,3.19,3.8,3.43c1.51,0.17,2.99,0.66,4.48,1.02c1.24,0.29,1.85,1.07,1.85,2.35
		c-0.01,2.28-0.01,4.56,0,6.85c0.01,1.34-0.63,2.12-1.93,2.42c-2.13,0.49-4.25,1.05-6.39,1.49c-0.66,0.14-0.96,0.41-1.16,1.02
		c-1.03,3.04-1.04,3.04,1.06,5.46c0.98,1.13,1.95,2.26,2.92,3.39c0.79,0.92,0.84,1.91,0.14,2.89c-1.35,1.89-2.73,3.76-4.09,5.64
		c-0.79,1.09-1.77,1.32-2.99,0.79c-1.97-0.85-3.96-1.64-5.91-2.53c-0.7-0.32-1.15-0.13-1.78,0.21c-1.98,1.03-2.83,2.42-2.28,4.72
		c0.35,1.48,0.29,3.05,0.43,4.58c0.12,1.27-0.4,2.13-1.6,2.53c-2.2,0.74-4.4,1.46-6.61,2.15c-1.26,0.39-2.22-0.01-2.89-1.16
		c-1.04-1.77-2.17-3.5-3.17-5.3c-0.44-0.78-0.95-0.98-1.83-1.1c-2.23-0.31-3.58,0.49-4.48,2.54c-0.61,1.39-1.56,2.63-2.34,3.95
		c-0.66,1.12-1.61,1.45-2.8,1.08c-2.25-0.71-4.5-1.43-6.73-2.2C45.14,97.96,45.28,96.52,45.42,95.7z M97.15,62.61c0-2,0-2-2-2.48
		c-1.58-0.38-3.15-0.78-4.73-1.11c-1.07-0.22-1.69-0.82-2.01-1.84c-0.57-1.8-1.13-3.6-1.77-5.37c-0.41-1.14-0.13-2.04,0.64-2.89
		c0.88-0.98,1.73-1.98,2.58-2.99c1.86-2.21,1.83-2.2,0.14-4.53c-0.53-0.73-1-0.77-1.76-0.42c-1.75,0.8-3.55,1.5-5.33,2.26
		c-0.94,0.4-1.79,0.31-2.6-0.29c-1.59-1.16-3.19-2.33-4.79-3.48c-0.79-0.56-1.13-1.3-1.05-2.26c0.12-1.44,0.23-2.89,0.32-4.33
		c0.18-2.83,0.16-2.81-2.64-3.69c-0.71-0.22-1.08-0.13-1.46,0.54c-0.95,1.68-2.01,3.29-2.97,4.97c-0.59,1.03-1.42,1.5-2.57,1.5
		c-1.89,0-3.78,0-5.66,0c-1.06,0-1.83-0.46-2.37-1.39c-0.65-1.14-1.36-2.26-2.03-3.38c-1.53-2.54-1.51-2.5-4.33-1.63
		c-0.86,0.27-1.07,0.67-0.98,1.5c0.21,1.96,0.34,3.93,0.52,5.9c0.09,0.96-0.26,1.71-1.04,2.27c-1.6,1.16-3.2,2.32-4.79,3.48
		c-0.81,0.59-1.67,0.7-2.6,0.29c-1.2-0.53-2.42-1.03-3.63-1.54c-2.83-1.18-2.81-1.16-4.61,1.29c-0.45,0.61-0.48,0.98,0.05,1.55
		c1.23,1.32,2.32,2.75,3.56,4.05c1.06,1.12,1.33,2.24,0.73,3.7c-0.6,1.45-1.03,2.98-1.45,4.5c-0.37,1.34-1.19,2.07-2.54,2.33
		c-1.16,0.22-2.31,0.53-3.46,0.8c-3.04,0.72-3.02,0.72-2.92,3.86c0.02,0.66,0.24,0.89,0.86,1.03c1.89,0.4,3.75,0.89,5.64,1.3
		c1.24,0.27,2.01,0.94,2.37,2.17c0.51,1.72,1.06,3.43,1.67,5.12c0.4,1.13,0.14,2.04-0.63,2.9c-0.88,0.98-1.74,1.98-2.58,2.99
		c-1.87,2.21-1.83,2.2-0.13,4.53c0.53,0.72,1,0.77,1.76,0.42c1.71-0.78,3.47-1.47,5.2-2.21c1.02-0.44,1.94-0.36,2.84,0.32
		c1.51,1.13,3.04,2.23,4.58,3.32c0.82,0.59,1.22,1.33,1.13,2.36c-0.13,1.4-0.23,2.8-0.31,4.2c-0.18,2.98-0.17,2.95,2.78,3.84
		c0.65,0.2,0.94,0.03,1.25-0.49c1.02-1.74,2.1-3.45,3.12-5.19c0.54-0.93,1.31-1.38,2.37-1.38c1.93,0,3.86,0,5.8,0
		c1.06,0,1.83,0.46,2.37,1.39c0.68,1.18,1.4,2.33,2.1,3.5c1.48,2.46,1.47,2.42,4.27,1.52c0.85-0.27,1.06-0.69,0.97-1.52
		c-0.21-1.92-0.33-3.84-0.52-5.76c-0.11-1.13,0.34-1.92,1.25-2.56c1.51-1.05,3-2.14,4.48-3.24c0.9-0.67,1.8-0.79,2.83-0.31
		c1.15,0.53,2.34,0.99,3.51,1.48c2.83,1.2,2.8,1.18,4.6-1.28c0.47-0.64,0.42-1.01-0.07-1.56c-1.32-1.46-2.59-2.98-3.89-4.47
		c-0.69-0.79-0.94-1.62-0.58-2.66c0.62-1.78,1.21-3.57,1.75-5.37c0.34-1.13,1.05-1.75,2.2-1.99c1.54-0.32,3.07-0.71,4.61-1.08
		C97.16,64.63,97.16,64.63,97.15,62.61z"/>
	<path class="st0" d="M56.79,112.48c-1.23-1.16-2.44-2.34-3.7-3.46c-0.57-0.51-0.51-0.81,0.01-1.34c2.3-2.36,2.29-2.37,4.58-0.07
		c1.92,1.92,3.85,3.84,5.77,5.77c1.41,1.42,1.42,2.4,0.01,3.81c-2.44,2.46-4.91,4.89-7.34,7.37c-0.5,0.51-0.84,0.64-1.33,0.02
		c-0.68-0.84-2.1-1.45-2.06-2.37c0.04-0.79,1.3-1.53,2.03-2.28c0.85-0.86,1.72-1.71,2.75-2.72c-5.36-0.53-10.36-1.55-15.1-3.53
		c-18.64-7.76-29.96-21.57-33.99-41.36c-0.14-0.67-0.08-1.09,0.76-1.08c0.47,0,0.95-0.15,1.43-0.22c1.84-0.26,1.84-0.26,2.18,1.5
		c4.04,20.65,20.31,36.43,41.19,39.93c0.85,0.14,1.71,0.25,2.56,0.37C56.63,112.7,56.71,112.59,56.79,112.48z"/>
	<path class="st0" d="M68.13,12.71c1.23,1.22,2.38,2.4,3.58,3.53c0.49,0.46,0.49,0.74,0.01,1.24c-2.33,2.44-2.31,2.46-4.68,0.09
		c-1.92-1.92-3.85-3.84-5.77-5.77c-1.36-1.37-1.37-2.37-0.03-3.72c2.44-2.46,4.92-4.89,7.34-7.36c0.53-0.54,0.87-0.73,1.43-0.05
		c0.67,0.81,1.96,1.48,2.03,2.29c0.08,0.85-1.28,1.52-2,2.28c-0.85,0.88-1.74,1.72-2.77,2.73c2.45,0.38,4.74,0.58,6.96,1.14
		c22.07,5.57,35.9,19.41,41.6,41.42c0.01,0.04,0.01,0.09,0.02,0.13c0.69,3.25,0.69,3.24-2.55,3.75c-0.76,0.12-1.02-0.02-1.19-0.86
		c-3.47-17.33-13.23-29.74-29.24-37.2c-4.11-1.91-8.47-3.06-12.95-3.73C69.39,12.53,68.82,12.44,68.13,12.71z"/>
	<path class="st0" d="M112.4,68.25c-1.34,1.35-2.52,2.5-3.65,3.7c-0.47,0.5-0.78,0.51-1.24-0.02c-0.71-0.82-1.99-1.54-2.08-2.39
		c-0.07-0.68,1.26-1.52,2-2.27c1.92-1.93,3.84-3.86,5.77-5.77c1.36-1.35,2.36-1.36,3.72-0.01c2.46,2.44,4.89,4.91,7.37,7.34
		c0.54,0.53,0.72,0.87,0.05,1.43c-0.81,0.67-1.48,1.95-2.3,2.03c-0.86,0.08-1.52-1.27-2.28-2c-0.88-0.85-1.71-1.76-2.71-2.8
		c-0.33,2.08-0.6,3.95-0.93,5.82c-3.84,21.62-22.23,39.69-43.97,43.26c-0.74,0.12-1.12,0.05-1.17-0.83c-0.05-1-0.66-2.16-0.32-2.94
		c0.38-0.87,1.78-0.57,2.72-0.81c19.96-5.04,32.64-17.51,38.09-37.33C112.03,72.66,112.54,70.63,112.4,68.25z"/>
	<path class="st0" d="M7.78,57.83c0.94-9.73,3.92-18.38,9.29-26.13c8.68-12.52,20.57-20.16,35.54-23.02
		c0.74-0.14,1.12-0.08,1.17,0.8c0.06,1,0.66,2.15,0.32,2.94c-0.38,0.88-1.78,0.57-2.72,0.81C30.36,18.65,17.5,31.97,12.7,53.11
		c-0.23,1.02-0.19,2.08-0.6,3.07c-0.07,0.16,0,0.48,0.12,0.58c0.2,0.17,0.39-0.05,0.54-0.21c1.09-1.09,2.19-2.15,3.25-3.27
		c0.46-0.49,0.74-0.5,1.25-0.02c2.46,2.31,2.48,2.3,0.09,4.68c-1.92,1.92-3.84,3.86-5.77,5.77c-1.37,1.36-2.37,1.37-3.72,0.03
		c-2.46-2.44-4.89-4.92-7.37-7.34c-0.54-0.53-0.74-0.86-0.05-1.43c0.81-0.67,1.47-1.96,2.29-2.04c0.85-0.08,1.53,1.27,2.28,2
		C5.88,55.8,6.7,56.71,7.78,57.83z"/>
	<path class="st0" d="M6.22,43.64c-1.2-0.4-2.34-0.72-3.42-1.18c-0.52-0.22-0.09-0.7,0.03-1.03c2.55-7.31,6.37-13.91,11.39-19.8
		c5.02-5.9,10.94-10.71,17.74-14.45c0.75-0.41,1.1-0.41,1.44,0.42c0.38,0.93,1.35,1.87,1.22,2.67c-0.14,0.86-1.56,1.08-2.41,1.6
		c-12,7.3-20.46,17.52-25.34,30.69C6.72,42.97,6.79,43.56,6.22,43.64z"/>
	<path class="st0" d="M122.18,83.17c-0.3,0.83-0.55,1.62-0.86,2.39c-5.69,14.18-15.16,25.04-28.52,32.51
		c-0.69,0.39-1.03,0.41-1.37-0.36c-0.41-0.96-1.37-1.94-1.25-2.79c0.11-0.81,1.56-1.08,2.41-1.6c11.92-7.25,20.37-17.36,25.18-30.47
		c0.38-1.04,0.76-1.55,1.9-0.93c0.61,0.33,1.31,0.48,1.98,0.7C121.95,82.71,122.25,82.79,122.18,83.17z"/>
	<path class="st0" d="M42.36,6.8c0.07,0.22-0.12,0.37-0.39,0.47c-0.97,0.38-1.95,0.74-2.91,1.14c-0.4,0.17-0.55,0.01-0.67-0.33
		c-0.09-0.25-0.22-0.47-0.31-0.72c-0.31-0.88-1.36-1.98-0.88-2.55c0.8-0.94,2.3-1.1,3.5-1.59c0.31-0.13,0.39,0.09,0.46,0.28
		C41.56,4.56,41.93,5.63,42.36,6.8z"/>
	<path class="st0" d="M86.05,116.69c0.72,0.87,0.96,2.02,1.46,3.03c0.13,0.27,0.5,0.66,0.01,0.88c-1.15,0.51-2.33,0.96-3.5,1.42
		c-0.32,0.12-0.36-0.19-0.43-0.35c-0.17-0.4-0.33-0.81-0.42-1.23c-0.17-0.78-1.11-1.78-0.57-2.24
		C83.47,117.45,84.78,117.2,86.05,116.69z"/>
	<path class="st0" d="M41.31,62.6c0-11.65,9.45-21.07,21.11-21.06c11.64,0.01,21.06,9.48,21.03,21.14
		c-0.02,11.61-9.53,21.03-21.19,21C50.71,83.65,41.31,74.2,41.31,62.6z M62.45,45.76c-9.28-0.03-16.88,7.47-16.93,16.71
		c-0.05,9.34,7.49,16.98,16.78,17c9.32,0.02,16.92-7.55,16.94-16.86C79.26,53.36,71.71,45.78,62.45,45.76z"/>
	<path class="st0" d="M53.97,60.51c2.09,0,2.09,0,2.09,2.13c0,2.09,0,2.09-2.13,2.09c-2.09,0-2.09,0-2.09-2.13
		C51.85,60.51,51.85,60.51,53.97,60.51z"/>
	<path class="st0" d="M62.45,60.51c2.04,0,2.04,0,2.04,2.04c0,2.17,0,2.17-2.18,2.17c-2.03,0-2.03,0-2.04-2.05
		C60.27,60.5,60.27,60.5,62.45,60.51z"/>
	<path class="st0" d="M72.92,62.62c0,2.1,0,2.1-2.11,2.1c-2.1,0-2.1,0-2.1-2.11c0-2.1,0-2.1,2.11-2.1
		C72.92,60.51,72.92,60.51,72.92,62.62z"/>
</g>
</svg>
