<?xml version="1.0" encoding="utf-8"?>
<!-- Generator: Adobe Illustrator 26.0.1, SVG Export Plug-In . SVG Version: 6.00 Build 0)  -->
<svg version="1.1" id="Layer_1" xmlns="http://www.w3.org/2000/svg" xmlns:xlink="http://www.w3.org/1999/xlink" x="0px" y="0px"
	 viewBox="0 0 125 125" style="enable-background:new 0 0 125 125;" xml:space="preserve">
<style type="text/css">
	.st0{fill:#FFFFFF;}
</style>
<g>
	<path class="st0" d="M40.85,98.34c1.47-6.09-1.24-9.91-5.79-14c-12.15-10.91-15.61-28.8-9.45-43.94
		c6.24-15.34,20.81-25.11,37.38-25.07c17.36,0.04,32.65,10.94,38.07,27.11c5.54,16.54,0.16,34.47-13.65,44.99
		c-1.82,1.38-2.53,2.77-2.44,5c0.16,4.21,0.11,8.43,0.01,12.65c-0.14,5.77-3.47,9.14-9.26,9.86c-0.86,0.11-2,1.09-2.31,1.93
		c-1.78,4.8-5.48,7.62-10.4,7.65c-4.88,0.03-8.93-2.72-10.41-7.54c-0.53-1.72-1.27-2.08-2.88-2.19c-5.21-0.35-8.77-4.25-8.87-9.54
		C40.81,102.96,40.85,100.65,40.85,98.34z M62.77,85.86c6.12,0,12.25,0.11,18.37-0.08c1.56-0.05,3.36-0.67,4.59-1.62
		c13.05-10.11,17.47-27.98,10.84-43.34c-6.53-15.15-22.8-24.17-39.19-21.71c-14.42,2.16-26.67,13.05-30.04,27.68
		c-3.47,15.03,1.05,27.72,12.99,37.59c1.05,0.87,2.69,1.38,4.07,1.42C50.52,85.95,56.65,85.86,62.77,85.86z M44.9,89.91
		c0,5.54-0.17,10.83,0.07,16.11c0.13,3,2.33,4.82,5.2,4.88c8.51,0.17,17.04,0.16,25.55-0.04c3.03-0.07,5.23-2.25,5.35-5.15
		c0.22-5.18,0.06-10.38,0.06-15.8C68.99,89.91,57.11,89.91,44.9,89.91z M69.76,115.14c-4.7,0-9.2,0-13.76,0
		c1.04,3.94,3.46,5.86,7.07,5.81C66.55,120.9,68.95,118.89,69.76,115.14z"/>
	<path class="st0" d="M34.69,19c-1.77-2.56-3.35-4.85-5.04-7.29c1.09-0.82,2.03-1.52,3.16-2.37c1.69,2.4,3.34,4.74,5.12,7.25
		C36.88,17.36,35.95,18.06,34.69,19z"/>
	<path class="st0" d="M18.97,41.66c-3.07-1.13-5.58-2.06-8.27-3.05c0.46-1.21,0.87-2.3,1.39-3.66c2.84,1.01,5.52,1.97,8.41,3
		C19.96,39.23,19.49,40.38,18.97,41.66z"/>
	<path class="st0" d="M106.05,41.64c-0.53-1.31-0.94-2.3-1.48-3.64c2.74-1.02,5.39-2,8.3-3.09c0.51,1.26,0.97,2.42,1.48,3.7
		C111.59,39.62,108.98,40.57,106.05,41.64z"/>
	<path class="st0" d="M87.1,16.59c1.81-2.56,3.42-4.84,5.11-7.23c1.09,0.77,2.04,1.44,3.24,2.29c-1.73,2.46-3.37,4.79-5.13,7.3
		C89.1,18.06,88.11,17.33,87.1,16.59z"/>
	<path class="st0" d="M10.71,71.57c-0.35-1.38-0.61-2.42-0.96-3.79c2.86-0.79,5.61-1.54,8.52-2.34c0.35,1.29,0.66,2.41,1.04,3.78
		C16.41,70.01,13.75,70.74,10.71,71.57z"/>
	<path class="st0" d="M105.78,69.25c0.32-1.29,0.6-2.42,0.95-3.8c2.83,0.76,5.56,1.49,8.52,2.29c-0.35,1.36-0.64,2.48-0.98,3.79
		C111.41,70.76,108.75,70.05,105.78,69.25z"/>
	<path class="st0" d="M60.83,0.47c1.19,0,2.17,0,3.38,0c0,2.86,0,5.69,0,8.76c-1.03,0.05-2.08,0.09-3.38,0.15
		C60.83,6.42,60.83,3.59,60.83,0.47z"/>
	<path class="st0" d="M69.7,79.48c-1.5,0-2.68,0-4.71,0c1.48-6.56,2.89-12.82,4.4-19.49c-4.21,0-8.61,0-12.92,0
		c1.48,6.53,2.9,12.76,4.41,19.43c-2.01,0.1-3.15,0.15-4.61,0.22c-0.3-8.05-2.38-15.38-6.48-22.19c1.74-1.66,3.47-2.77,5.86-1.57
		c0.17,0.09,0.39,0.17,0.58,0.15c4.58-0.52,9.21,0.33,13.75-0.22c2.37-0.29,4.24-0.32,6.04,1.64C72.19,64.16,69.71,71.37,69.7,79.48
		z"/>
	<path class="st0" d="M84.24,40.73c-3.12-2.84-5.9-5.39-8.87-8.1c0.42-0.78,0.98-1.79,1.95-3.58c3.56,3.24,6.79,6.2,10.29,9.39
		C86.06,39.5,85.09,40.16,84.24,40.73z"/>
	<path class="st0" d="M53.03,102.04c0-1.36,0-2.44,0-3.69c6.56,0,13,0,19.59,0c0,1.26,0,2.4,0,3.69
		C66.1,102.04,59.66,102.04,53.03,102.04z"/>
</g>
</svg>
